<svg width="227" height="763" viewBox="0 0 227 763" fill="none" xmlns="http://www.w3.org/2000/svg">
<mask id="mask0_281_906" style="mask-type:luminance" maskUnits="userSpaceOnUse" x="0" y="0" width="227" height="763">
<path d="M0 0H226.667V762.667H0V0Z" fill="white"/>
</mask>
<g mask="url(#mask0_281_906)">
<mask id="mask1_281_906" style="mask-type:luminance" maskUnits="userSpaceOnUse" x="-223" y="-5" width="668" height="773">
<path d="M-222.828 590.172L34.6875 -4.01074L444.557 173.625L187.047 767.807L-222.828 590.172Z" fill="white"/>
</mask>
<g mask="url(#mask1_281_906)">
<mask id="mask2_281_906" style="mask-type:luminance" maskUnits="userSpaceOnUse" x="-223" y="-5" width="668" height="773">
<path d="M-222.828 590.172L34.6875 -4.01074L444.557 173.625L187.047 767.807L-222.828 590.172Z" fill="white"/>
</mask>
<g mask="url(#mask2_281_906)">
<path d="M119.476 -5.35511L119.358 -5.13447C110.569 11.0134 110.121 29.8641 118.242 41.765C123.242 49.0902 131.003 53.7594 138.513 58.2825C141.699 60.1994 144.994 62.1807 148.065 64.356C158.506 71.7491 166.546 82.1148 170.711 93.5381C175.595 106.943 174.87 121.038 168.61 134.313C162.167 147.971 153.848 161.026 145.806 173.653C136.007 189.036 125.874 204.947 119.159 222.014C112.622 238.639 111.049 252.888 114.491 264.363C116.943 272.555 121.984 279.304 126.856 285.834C129.611 289.534 132.464 293.355 134.84 297.415C139.939 306.13 142.983 316.49 143.736 327.55L142.924 327.335L142.8 327.555C141.298 330.314 140.046 333.149 139.032 336.017C139.028 335.532 139.028 335.054 139.018 334.569C138.671 322.066 135.495 310.293 129.815 300.527C127.417 296.393 124.555 292.534 121.791 288.799C117.033 282.388 112.119 275.755 109.768 267.849C106.47 256.769 108.022 242.945 114.386 226.759C121.002 209.922 131.037 194.156 140.746 178.904C148.791 166.267 157.107 153.201 163.582 139.459C170.03 125.775 170.8 111.243 165.801 97.4272C161.578 85.7424 153.409 75.1387 142.807 67.57C139.73 65.3722 136.439 63.3705 133.231 61.4281C125.899 56.9775 118.32 52.3767 113.525 45.3048C105.769 33.8594 106.231 15.739 114.683 0.209178L114.871 -0.146302L113.273 -0.57207L113.154 -0.351426C104.404 15.7351 103.938 34.5399 111.996 46.4438C116.948 53.765 124.654 58.4495 132.109 62.9777C135.271 64.9059 138.544 66.8932 141.583 69.0676C151.941 76.476 159.914 86.8386 164.04 98.2435C168.874 111.628 168.134 125.693 161.906 138.916C155.494 152.528 147.218 165.527 139.217 178.104C129.467 193.428 119.39 209.271 112.703 226.279C106.194 242.846 104.617 257.057 108.021 268.514C110.45 276.69 115.443 283.436 120.286 289.975C123.017 293.665 125.844 297.486 128.195 301.536C133.335 310.387 136.366 320.947 137.032 332.202L136.715 332.117L136.596 332.338C134.934 335.394 133.569 338.552 132.507 341.739C132.518 340.812 132.511 339.887 132.49 338.958C132.164 326.48 129.016 314.724 123.387 304.968C121.002 300.826 118.17 296.977 115.426 293.247C110.711 286.834 105.838 280.204 103.512 272.313C100.248 261.245 101.804 247.455 108.141 231.322C114.736 214.539 124.716 198.836 134.376 183.643C142.378 171.061 150.652 158.045 157.101 144.356C163.518 130.719 164.298 116.216 159.35 102.416C155.165 90.7441 147.066 80.1383 136.542 72.5533C133.473 70.3411 130.204 68.3334 127.039 66.394C119.761 61.9331 112.234 57.316 107.48 50.2471C99.7888 38.7987 100.27 20.7141 108.679 5.24449L108.867 4.88901L107.279 4.46018L107.156 4.6798C98.4487 20.7112 97.9645 39.4751 105.958 51.3821C110.868 58.7002 118.517 63.4 125.931 67.9518C129.067 69.8799 132.312 71.8724 135.324 74.0467C145.605 81.4715 153.514 91.8321 157.593 103.233C162.378 116.602 161.628 130.634 155.431 143.81C149.044 157.373 140.816 170.319 132.857 182.845C123.157 198.105 113.124 213.887 106.469 230.839C99.9859 247.357 98.4011 261.53 101.771 272.969C104.176 281.13 109.127 287.877 113.92 294.402C116.634 298.099 119.44 301.916 121.774 305.968C126.998 315.043 130.019 325.892 130.561 337.447C128.744 340.796 127.297 344.262 126.205 347.761C126.234 346.392 126.242 345.023 126.207 343.656C126.204 343.592 126.201 343.528 126.198 343.463C126.247 343.377 126.291 343.291 126.336 343.199L126.528 342.849L126.171 342.751C125.735 330.634 122.645 319.229 117.202 309.712C114.845 305.587 112.03 301.731 109.304 297.994C104.626 291.583 99.7908 284.949 97.4835 277.068C94.2546 266.012 95.82 252.255 102.132 236.17C108.7 219.44 118.636 203.798 128.247 188.664C136.208 176.127 144.445 163.162 150.863 149.52C157.256 135.926 158.045 121.456 153.147 107.672C148.999 96.0072 140.965 85.3933 130.513 77.7908C127.472 75.5736 124.224 73.5648 121.072 71.6121C113.847 67.1298 106.374 62.5025 101.659 55.4306C94.0264 43.978 94.5219 25.9281 102.894 10.5096L103.086 10.1603L101.506 9.72223L101.382 9.94185C92.7129 25.9171 92.2134 44.6513 100.137 56.5604C105.015 63.8826 112.608 68.5978 119.97 73.1659C123.089 75.1011 126.306 77.0987 129.296 79.2792C139.504 86.7213 147.348 97.0901 151.392 108.479C156.132 121.833 155.378 135.837 149.199 148.97C142.843 162.486 134.651 175.386 126.735 187.857C117.078 203.061 107.099 218.786 100.465 235.688C94.0038 252.147 92.4201 266.288 95.7553 277.716C98.1351 285.871 103.049 292.617 107.804 299.144C110.492 302.836 113.277 306.654 115.59 310.707C120.98 320.144 124.007 331.494 124.343 343.549C122.574 346.951 121.17 350.468 120.138 354.011C120.194 352.615 120.213 351.217 120.201 349.817C120.393 349.441 120.591 349.061 120.793 348.687L120.985 348.338L120.171 348.106C119.795 335.879 116.728 324.356 111.277 314.747C108.932 310.614 106.139 306.757 103.438 303.025C98.793 296.61 93.9895 289.977 91.7078 282.101C88.5085 271.057 90.079 257.327 96.3653 241.29C102.914 224.604 112.807 209.017 122.369 193.942C130.299 181.453 138.495 168.538 144.889 154.938C151.256 141.393 152.055 126.951 147.199 113.17C143.091 101.513 135.113 90.8892 124.739 83.2653C121.721 81.042 118.486 79.0199 115.362 77.0621C108.187 72.5686 100.761 67.9188 96.0782 60.8427C88.5061 49.381 89.0169 31.3607 97.3522 15.9933L97.5432 15.649L95.965 15.2008L95.8455 15.4266C87.2089 31.3446 86.6941 50.0492 94.5635 61.9634C99.4029 69.2938 106.945 74.0253 114.266 78.6118C117.357 80.5522 120.556 82.562 123.52 84.7425C133.654 92.2071 141.443 102.586 145.451 113.968C150.149 127.319 149.384 141.295 143.231 154.384C136.899 167.857 128.748 180.712 120.862 193.137C111.253 208.287 101.318 223.951 94.7105 240.8C88.269 257.215 86.6801 271.328 89.9857 282.745C92.341 290.89 97.2222 297.64 101.94 304.17C104.606 307.863 107.37 311.682 109.666 315.737C115.058 325.244 118.057 336.684 118.345 348.82C118.351 349.187 118.352 349.554 118.353 349.921C116.65 353.341 115.307 356.87 114.337 360.42C114.413 359.081 114.459 357.736 114.467 356.394C114.799 355.717 115.141 355.041 115.503 354.375L115.695 354.026L114.438 353.669C114.116 341.356 111.074 329.738 105.621 320.059C103.297 315.93 100.525 312.072 97.8372 308.327C93.2247 301.908 88.459 295.272 86.1977 287.4C83.029 276.361 84.6006 262.654 90.8674 246.66C97.3906 230.022 107.24 214.495 116.765 199.472C124.659 187.028 132.824 174.16 139.19 160.598C145.532 147.095 146.343 132.677 141.528 118.898C137.452 107.243 129.534 96.6099 119.225 88.9564C116.228 86.732 113.016 84.7037 109.914 82.7399C102.781 78.2228 95.4013 73.5556 90.753 66.4653C83.2299 54.9974 83.7581 36.9965 92.0618 21.6812L92.2476 21.336L90.6807 20.8847L90.5612 21.1104C81.9563 36.9763 81.4251 55.6564 89.2394 67.5809C94.0409 74.9143 101.541 79.6693 108.796 84.2691C111.874 86.2176 115.062 88.2357 118.011 90.4345C128.082 97.9236 135.815 108.313 139.787 119.692C144.448 133.042 143.667 146.993 137.542 160.045C134.204 167.154 130.353 174.091 126.307 180.883C128.966 176.167 131.496 171.372 133.79 166.487C140.109 153.022 140.927 138.621 136.148 124.85C132.11 113.192 124.243 102.542 113.997 94.8639C111.022 92.6334 107.839 90.5949 104.736 88.6096C97.6476 84.0803 90.3101 79.3896 85.6955 72.2901C78.2235 60.8058 78.7629 42.8285 87.0359 27.5601L87.2269 27.2159L85.661 26.7595L85.5415 26.9852C76.9672 42.8042 76.4258 61.4557 84.188 73.4016C88.9609 80.7452 96.4138 85.5227 103.623 90.1398C106.678 92.0996 109.843 94.1238 112.785 96.3318C122.792 103.845 130.474 114.256 134.414 125.635C139.037 138.987 138.249 152.921 132.143 165.93C130.543 169.338 128.829 172.703 127.032 176.035C127.596 174.889 128.153 173.747 128.693 172.591C134.993 159.164 135.818 144.781 131.083 131.003C127.072 119.344 119.252 108.672 109.065 100.963C106.1 98.7135 102.924 96.6659 99.8571 94.6826C92.8066 90.1236 85.511 85.4095 80.924 78.3048C73.4938 66.7971 74.0455 48.8381 82.294 33.6127L82.485 33.2684L80.9252 32.8079L80.8057 33.0337C79.6711 35.1226 78.6857 37.2627 77.8381 39.4302L76.4857 39.0218L76.3662 39.2476C75.2234 41.3508 74.2339 43.5113 73.3771 45.6983L72.3567 45.3828L72.2362 45.6136C71.0914 47.7271 70.0947 49.8967 69.2349 52.0991L68.5556 51.8836L68.4351 52.1145C67.2831 54.2371 66.2844 56.417 65.4297 58.6203L65.0998 58.5172L64.9742 58.747C56.5183 74.3719 55.9156 92.9846 63.4715 105.059C68.1219 112.485 75.4043 117.398 82.467 122.161C85.4529 124.176 88.5429 126.254 91.4012 128.509C101.176 136.205 108.661 146.746 112.478 158.185C116.952 171.593 116.129 185.488 110.1 198.352C109.043 200.611 107.933 202.843 106.782 205.067C105.328 207.665 103.825 210.244 102.299 212.801C100.168 216.232 98.0177 219.631 95.8893 222.998C92.413 228.486 88.8957 234.045 85.5123 239.705C81.2853 246.53 77.1523 253.495 73.4412 260.662C69.3827 267.919 65.6563 275.375 62.6296 283.103C56.3056 299.276 54.6861 313.277 57.8221 324.718C60.062 332.883 64.7511 339.716 69.2829 346.326C71.8492 350.069 74.5064 353.941 76.7059 358.029C81.8744 367.619 84.7153 379.075 84.9249 391.153C84.9753 393.93 84.8724 396.703 84.646 399.457C80.5447 407.512 78.4977 416.292 78.5374 424.516C78.2944 425.095 78.0523 425.668 77.796 426.233L77.6622 426.53L78.6122 426.932C78.9766 433.453 80.6932 439.532 83.7877 444.512C88.4228 451.96 95.6827 456.906 102.714 461.695C105.691 463.725 108.772 465.822 111.627 468.093C121.372 475.835 128.829 486.408 132.63 497.87C136.821 510.52 136.332 523.568 131.242 535.771C130.908 536.432 130.569 537.092 130.231 537.747C128.77 540.354 127.265 542.943 125.733 545.505C123.602 548.935 121.459 552.325 119.331 555.687C115.861 561.171 112.346 566.72 108.969 572.376C104.729 579.208 100.595 586.179 96.8812 593.361C93.8828 598.716 91.0714 604.172 88.5869 609.773C86.4974 613.981 84.5582 618.262 82.8498 622.637C76.5309 638.785 74.9114 652.786 78.0331 664.245C80.2597 672.423 84.9284 679.279 89.45 685.914C92.004 689.664 94.6479 693.549 96.8455 697.648C101.987 707.264 104.82 718.735 105.023 730.821C105.225 742.988 102.759 755.115 97.8916 765.885L97.7589 766.177L99.3912 766.886L99.5229 766.599C100.534 764.358 101.441 762.053 102.249 759.708L102.744 759.918L102.869 759.635C103.877 757.41 104.78 755.126 105.581 752.795L106.482 753.177L106.607 752.894C107.606 750.687 108.498 748.428 109.298 746.128L110.593 746.663L110.719 746.38C115.74 735.29 118.265 722.846 118.028 710.396C117.792 698.027 114.833 686.313 109.482 676.517C107.214 672.373 104.506 668.49 101.886 664.727C97.3836 658.26 92.7282 651.578 90.5374 643.698C87.4606 632.652 89.0444 619.016 95.251 603.164C95.7095 601.986 96.1936 600.814 96.6878 599.643C91.3504 614.521 90.1546 627.438 93.1322 638.077C95.414 646.219 100.171 653.007 104.771 659.567C107.369 663.284 110.065 667.121 112.296 671.184C117.539 680.72 120.439 692.145 120.679 704.229C120.919 716.397 118.449 728.566 113.54 739.413L113.4 739.714L115.059 740.396L115.185 740.113C120.216 728.999 122.744 716.539 122.499 704.082C122.253 691.706 119.271 679.998 113.886 670.217C111.607 666.075 108.886 662.201 106.254 658.445C101.727 651.995 97.0472 645.329 94.839 637.457C91.7449 626.418 93.3267 612.765 99.5435 596.889C100.923 593.362 102.461 589.893 104.101 586.471C103.559 587.749 103.027 589.029 102.518 590.324C96.1401 606.608 94.5379 620.655 97.7608 632.06C100.054 640.199 104.84 646.972 109.464 653.521C112.079 657.23 114.787 661.059 117.035 665.12C122.313 674.642 125.233 686.071 125.483 698.162C125.731 710.337 123.264 722.522 118.338 733.398L118.204 733.701L119.864 734.372L119.994 734.096C125.037 722.951 127.568 710.476 127.308 698.012C127.053 685.628 124.051 673.916 118.631 664.149C116.34 660.015 113.602 656.148 110.952 652.4C106.402 645.961 101.693 639.305 99.4695 631.43C96.3479 620.396 97.9266 606.732 104.162 590.817C106.645 584.478 109.617 578.3 112.865 572.252C110.89 576.26 109.068 580.331 107.442 584.478C101.045 600.801 99.4453 614.864 102.694 626.274C105.008 634.412 109.818 641.173 114.474 647.718C117.112 651.422 119.831 655.248 122.096 659.302C127.408 668.814 130.35 680.242 130.614 692.341C130.874 704.535 128.403 716.74 123.466 727.646L123.326 727.947L124.999 728.616L125.123 728.338C130.187 717.166 132.718 704.665 132.445 692.187C132.177 679.79 129.148 668.078 123.695 658.32C121.382 654.187 118.633 650.324 115.965 646.582C111.387 640.154 106.649 633.508 104.409 625.64C101.265 614.607 102.838 600.92 109.091 584.972C113.081 574.786 118.314 565.028 123.96 555.545C119.704 563.097 115.803 570.842 112.655 578.859C106.243 595.233 104.644 609.317 107.919 620.728C110.254 628.869 115.102 635.622 119.787 642.157C122.437 645.852 125.178 649.677 127.459 653.729C132.809 663.238 135.781 674.673 136.052 686.789C136.326 698.996 133.855 711.228 128.897 722.161L128.762 722.464L130.435 723.127L130.565 722.851C135.64 711.649 138.176 699.122 137.89 686.631C137.61 674.215 134.555 662.498 129.063 652.748C126.735 648.613 123.963 644.755 121.278 641.021C116.672 634.598 111.901 627.961 109.64 620.089C106.471 609.051 108.043 595.343 114.309 579.354C120.832 562.717 130.681 547.19 140.213 532.157C148.102 519.712 156.268 506.844 162.632 493.287C168.979 479.785 169.785 465.366 164.97 451.588C160.9 439.933 152.976 429.299 142.667 421.645C139.665 419.42 136.459 417.388 133.356 415.429C126.223 410.912 118.843 406.245 114.195 399.154C111.545 395.114 109.901 390.265 109.237 385.007C110.547 381.482 111.617 377.856 112.445 374.165C112.441 376.257 112.573 378.307 112.848 380.306C112.326 381.641 111.775 382.965 111.179 384.269L111.043 384.577L112.729 385.232L112.852 384.96C113.054 384.511 113.246 384.056 113.442 383.606C114.347 387.659 115.865 391.41 118.006 394.653C122.845 401.983 130.387 406.714 137.688 411.292C140.785 413.233 143.989 415.244 146.962 417.432C157.101 424.897 164.89 435.276 168.893 446.657C173.591 460.008 172.826 473.989 166.673 487.073C160.346 500.548 152.191 513.396 144.304 525.826C134.695 540.976 124.76 556.64 118.152 573.494C111.711 589.904 110.122 604.018 113.428 615.434C115.783 623.58 120.659 630.328 125.382 636.859C128.053 640.553 130.811 644.376 133.108 648.426C138.501 657.933 141.499 669.373 141.787 681.509C142.073 693.734 139.597 705.992 134.621 716.958L134.486 717.266L136.171 717.921L136.295 717.649C141.393 706.409 143.929 693.856 143.631 681.346C143.333 668.911 140.253 657.189 134.719 647.436C132.373 643.308 129.585 639.452 126.88 635.714C122.235 629.299 117.432 622.666 115.15 614.79C111.951 603.746 113.521 590.016 119.807 573.979C126.356 557.293 136.249 541.706 145.816 526.633C153.74 514.147 161.936 501.232 168.331 487.628C174.698 474.082 175.498 459.635 170.641 445.859C166.533 434.202 158.555 423.578 148.181 415.954C145.163 413.731 141.929 411.709 138.808 409.757C131.629 405.258 124.202 400.613 119.52 393.532C117.053 389.799 115.448 385.367 114.689 380.557C116.026 377.08 117.125 373.497 117.981 369.849C118.033 371.984 118.225 374.078 118.569 376.101C118.127 377.197 117.67 378.29 117.185 379.362L117.044 379.668L118.735 380.32L118.859 380.047C118.988 379.775 119.102 379.495 119.22 379.222C120.156 382.887 121.607 386.279 123.584 389.251C128.457 396.572 136.05 401.287 143.403 405.848C146.522 407.783 149.748 409.788 152.738 411.968C162.946 419.41 170.79 429.779 174.834 441.168C179.574 454.523 178.82 468.527 172.642 481.659C166.285 495.18 158.093 508.075 150.176 520.552C140.52 535.751 130.541 551.475 123.907 568.377C117.445 584.841 115.861 598.982 119.197 610.405C121.577 618.561 126.491 625.306 131.25 631.844C133.944 635.532 136.723 639.349 139.032 643.396C144.466 652.906 147.494 664.357 147.799 676.517C148.102 688.762 145.619 701.05 140.627 712.051L140.486 712.357L142.178 713.009L142.301 712.736C147.422 701.464 149.964 688.879 149.649 676.345C149.34 663.892 146.226 652.153 140.644 642.401C138.282 638.275 135.473 634.42 132.751 630.684C128.068 624.272 123.233 617.638 120.926 609.757C117.697 598.701 119.262 584.944 125.574 568.859C132.142 552.129 142.079 536.482 151.696 521.344C159.657 508.807 167.888 495.846 174.305 482.209C180.698 468.615 181.487 454.145 176.589 440.361C172.441 428.696 164.406 418.087 153.96 410.481C150.923 408.27 147.671 406.255 144.519 404.302C137.293 399.825 129.822 395.193 125.101 388.12C122.822 384.695 121.272 380.678 120.433 376.319C121.785 372.904 122.902 369.388 123.783 365.803C123.889 367.981 124.151 370.1 124.57 372.149C124.209 373.027 123.838 373.898 123.448 374.76L123.306 375.072L125.009 375.72L125.132 375.448C125.188 375.326 125.233 375.208 125.289 375.086C126.23 378.355 127.599 381.39 129.4 384.071C134.31 391.389 141.96 396.089 149.358 400.633C152.499 402.562 155.75 404.555 158.766 406.736C169.047 414.161 176.956 424.521 181.035 435.922C185.82 449.291 185.07 463.323 178.873 476.499C172.487 490.057 164.264 503.004 156.3 515.529C146.599 530.794 136.566 546.576 129.91 563.533C123.428 580.046 121.843 594.219 125.213 605.658C127.617 613.825 132.569 620.567 137.366 627.097C140.081 630.789 142.881 634.61 145.216 638.657C150.692 648.17 153.754 659.638 154.07 671.822C154.39 684.092 151.906 696.411 146.889 707.455L146.748 707.761L148.451 708.41L148.574 708.137C153.714 696.826 156.258 684.205 155.932 671.647C155.606 659.169 152.458 647.413 146.834 637.658C144.452 633.527 141.616 629.673 138.873 625.938C134.153 619.523 129.28 612.893 126.948 605.001C123.69 593.935 125.246 580.144 131.583 564.011C138.177 547.233 148.163 531.526 157.824 516.328C165.827 503.741 174.1 490.73 180.543 477.045C186.965 463.409 187.74 448.905 182.797 435.106C178.608 423.433 170.508 412.827 159.984 405.242C156.929 403.038 153.656 401.03 150.481 399.083C143.203 394.622 135.676 390.005 130.922 382.936C128.835 379.826 127.351 376.226 126.464 372.32C127.808 368.998 128.943 365.576 129.843 362.086C130.017 364.272 130.35 366.404 130.843 368.452C130.558 369.134 130.258 369.812 129.954 370.484L129.813 370.79L131.527 371.436L131.624 371.216C132.555 374.079 133.822 376.749 135.438 379.133C140.391 386.454 148.096 391.139 155.56 395.674C158.724 397.597 161.99 399.588 165.025 401.757C175.383 409.165 183.361 419.529 187.481 430.938C192.315 444.322 191.576 458.382 185.348 471.606C178.937 485.212 170.666 498.213 162.659 510.793C152.915 526.113 142.832 541.96 136.145 558.968C129.636 575.535 128.059 589.746 131.463 601.203C133.892 609.38 138.89 616.126 143.724 622.658C146.455 626.348 149.282 630.169 151.637 634.225C157.165 643.743 160.26 655.229 160.587 667.436C160.922 679.735 158.437 692.092 153.396 703.173L153.255 703.48L154.969 704.125L155.092 703.857C160.256 692.503 162.801 679.851 162.459 667.263C162.113 654.755 158.937 642.982 153.262 633.217C150.859 629.082 147.997 625.223 145.232 621.494C140.475 615.077 135.561 608.444 133.21 600.538C129.912 589.458 131.464 575.635 137.828 559.448C144.444 542.611 154.479 526.845 164.188 511.593C172.232 498.961 180.548 485.895 187.024 472.148C193.477 458.465 194.242 443.932 189.244 430.116C185.02 418.432 176.851 407.828 166.249 400.259C163.158 398.053 159.861 396.05 156.669 394.111C149.341 389.667 141.757 385.065 136.967 377.994C135.081 375.206 133.683 372.021 132.762 368.581C134.099 365.343 135.233 362.011 136.146 358.613C136.386 360.812 136.799 362.945 137.367 364.992C137.146 365.511 136.927 366.025 136.691 366.541L136.55 366.847L138.146 367.442C139.055 369.966 140.23 372.326 141.683 374.459C146.679 381.778 154.446 386.448 161.965 390.974C165.15 392.896 168.45 394.878 171.507 397.045C181.948 404.438 189.989 414.804 194.153 426.227C199.037 439.632 198.312 453.727 192.052 467.002C185.61 480.661 177.29 493.715 169.248 506.342C159.449 521.725 149.316 537.636 142.601 554.703C136.064 571.328 134.491 585.577 137.933 597.052C140.386 605.244 145.426 611.993 150.297 618.528C153.058 622.224 155.911 626.05 158.281 630.109C163.86 639.637 166.993 651.147 167.34 663.385C167.686 675.712 165.197 688.111 160.133 699.23L159.992 699.536L161.712 700.177L161.835 699.91C167.022 688.518 169.576 675.824 169.215 663.201C168.858 650.664 165.639 638.867 159.913 629.092C157.484 624.952 154.602 621.093 151.812 617.354C147.018 610.936 142.062 604.299 139.682 596.382C136.35 585.285 137.904 571.425 144.289 555.184C150.939 538.285 161.024 522.454 170.782 507.143C178.869 494.456 187.233 481.336 193.74 467.541C200.219 453.805 200.976 439.233 195.927 425.403C191.654 413.697 183.416 403.096 172.732 395.537C169.619 393.337 166.295 391.34 163.084 389.413C155.697 384.972 148.057 380.386 143.22 373.311C141.539 370.85 140.245 368.079 139.323 365.091C143.883 354.259 146.109 342.355 145.773 330.512C145.416 317.975 142.197 306.178 136.471 296.402C134.046 292.269 131.169 288.411 128.374 284.671C123.575 278.252 118.619 271.615 116.24 263.693C112.908 252.596 114.457 238.734 120.847 222.495C127.491 205.6 137.582 189.765 147.341 174.449C155.427 161.762 163.792 148.641 170.298 134.852C176.777 121.116 177.534 106.544 172.485 92.7136C168.211 81.0135 159.979 70.4077 149.29 62.8482C146.182 60.6494 142.858 58.6518 139.637 56.7227C132.249 52.2823 124.611 47.6907 119.778 40.6167C111.953 29.1734 112.403 11.0081 120.893 -4.57795L121.086 -4.93241L119.476 -5.35511ZM116.142 310.392C113.808 306.309 111.016 302.474 108.315 298.768C103.592 292.29 98.7122 285.588 96.3641 277.54C93.0697 266.253 94.6474 252.249 101.056 235.918C107.668 219.075 117.631 203.379 127.267 188.197C135.197 175.707 143.398 162.794 149.772 149.238C156.023 135.956 156.79 121.784 151.993 108.264C147.909 96.756 139.98 86.28 129.67 78.7643C126.662 76.5696 123.435 74.5649 120.293 72.6142C113.001 68.0921 105.47 63.4157 100.67 56.2049C92.9039 44.545 93.3748 26.1928 101.818 10.4699L102.151 10.5577C93.8498 26.1018 93.4299 44.2252 101.132 55.782C105.925 62.9704 113.454 67.6355 120.746 72.1525C123.879 74.096 127.116 76.1027 130.14 78.3006C140.484 85.8336 148.444 96.3372 152.547 107.881C157.391 121.512 156.61 135.813 150.291 149.246C143.884 162.859 135.661 175.805 127.71 188.323C118.083 203.48 108.131 219.151 101.54 235.94C95.1754 252.158 93.6039 266.052 96.8747 277.244C99.2127 285.237 104.083 291.91 108.801 298.382C111.506 302.094 114.309 305.931 116.65 310.027C122.016 319.401 125.071 330.634 125.531 342.576L124.948 342.411L124.934 342.43C124.445 330.684 121.422 319.633 116.142 310.392ZM99.0693 766.052L98.5995 765.851C99.5604 763.701 100.425 761.5 101.192 759.258L101.667 759.459C100.895 761.7 100.029 763.906 99.0693 766.052ZM143.242 328.079L143.585 328.168C141.611 331.853 140.087 335.68 138.999 339.526C139.015 339.025 139.024 338.527 139.028 338.029C140.095 334.657 141.496 331.315 143.242 328.079ZM119.898 372.537C119.14 364.504 120.638 355.604 124.362 347.228C124.209 355.861 122.694 364.449 119.898 372.537ZM130.648 340.837C130.692 350.395 129.05 359.941 125.839 368.854C124.665 360.063 126.285 350.099 130.648 340.837ZM131.655 347.146C131.416 350.413 130.985 353.662 130.364 356.873C130.475 353.687 130.906 350.417 131.655 347.146ZM137.148 334.785C137.227 337.818 137.136 340.848 136.879 343.862C136.413 346.222 136.108 348.572 135.974 350.888C135.118 355.837 133.803 360.689 132.061 365.365C130.417 355.891 132.134 344.883 137.148 334.785ZM136.598 350.981C137.002 348.64 137.31 346.279 137.513 343.908C137.744 342.749 138.014 341.587 138.325 340.427C138.291 341.212 138.246 341.994 138.185 342.779C137.535 345.788 137.154 348.787 137.051 351.719C136.89 352.606 136.713 353.49 136.526 354.371C136.511 353.253 136.535 352.121 136.598 350.981ZM137.678 351.824C138.218 348.856 138.6 345.857 138.82 342.842C139.832 338.205 141.501 333.547 143.828 329.083C143.853 329.619 143.879 330.155 143.898 330.695C144.2 341.41 142.356 352.174 138.544 362.104C137.846 358.847 137.556 355.384 137.678 351.824ZM128.742 301.215C126.376 297.136 123.541 293.303 120.784 289.586C115.988 283.104 111.028 276.402 108.631 268.333C105.269 257.012 106.838 242.943 113.294 226.509C119.959 209.56 130.021 193.74 139.755 178.44C147.764 165.849 156.049 152.835 162.479 139.185C168.781 125.807 169.527 111.578 164.635 98.028C160.469 86.5035 152.417 76.0346 141.952 68.5517C138.894 66.3631 135.612 64.3686 132.44 62.4384C125.042 57.9428 117.398 53.2971 112.524 46.0873C104.63 34.4284 105.067 16.0057 113.591 0.171503L113.929 0.260332C105.558 15.9127 105.171 34.1117 112.997 45.6613C117.871 52.8446 125.511 57.4841 132.924 61.9828C136.097 63.9078 139.38 65.9024 142.438 68.0859C152.938 75.5811 161.022 86.0775 165.206 97.6428C170.147 111.293 169.384 125.661 163.009 139.19C156.552 152.893 148.245 165.94 140.208 178.568C130.489 193.839 120.433 209.633 113.796 226.524C107.378 242.849 105.819 256.809 109.159 268.03C111.54 276.043 116.489 282.72 121.279 289.18C124.036 292.897 126.885 296.744 129.267 300.848C134.58 309.983 137.681 320.907 138.293 332.539L137.683 332.374C137.036 320.942 133.966 310.211 128.742 301.215ZM138.125 332.898L138.295 332.582C138.332 333.248 138.362 333.918 138.382 334.591C138.41 335.701 138.41 336.816 138.395 337.929C138.162 338.668 137.943 339.416 137.742 340.157C137.811 338.349 137.833 336.542 137.78 334.731C137.773 334.368 137.751 334.002 137.738 333.639C137.867 333.394 137.992 333.142 138.125 332.898ZM137.039 332.862L137.069 332.868C137.08 333.077 137.087 333.286 137.093 333.494C134.998 337.516 133.424 341.699 132.379 345.889C132.412 345.274 132.44 344.653 132.463 344.036C133.559 340.25 135.082 336.486 137.039 332.862ZM131.854 338.974C131.895 340.629 131.888 342.285 131.828 343.941C131.563 344.87 131.313 345.803 131.1 346.732C131.257 344.352 131.316 341.958 131.268 339.569C131.453 339.202 131.642 338.842 131.831 338.481C131.841 338.643 131.85 338.809 131.854 338.974ZM122.321 305.652C119.971 301.571 117.152 297.735 114.431 294.026C109.671 287.545 104.753 280.847 102.381 272.788C99.0528 261.485 100.625 247.453 107.06 231.073C113.693 214.176 123.71 198.422 133.39 183.18C141.361 170.646 149.599 157.681 156.004 144.078C162.28 130.748 163.036 116.548 158.188 103.017C154.069 91.5021 146.076 81.0291 135.693 73.5309C132.667 71.3433 129.408 69.3426 126.248 67.3992C118.906 62.8934 111.318 58.2323 106.48 51.0246C98.655 39.3688 99.1117 20.9818 107.598 5.20375L107.93 5.29667C99.5928 20.8868 99.1912 39.051 106.953 50.5986C111.784 57.789 119.373 62.4398 126.707 66.9384C129.858 68.8696 133.118 70.8703 136.173 73.0691C146.59 80.5797 154.61 91.0792 158.754 102.631C163.644 116.271 162.872 130.601 156.524 144.081C150.096 157.743 141.832 170.734 133.838 183.307C124.168 198.519 114.167 214.25 107.55 231.092C101.16 247.358 99.5972 261.285 102.903 272.489C105.26 280.492 110.167 287.166 114.915 293.623C117.647 297.335 120.469 301.176 122.841 305.283C128.18 314.551 131.258 325.641 131.789 337.442L131.19 337.275C130.625 325.673 127.577 314.776 122.321 305.652ZM131.216 337.944L131.372 337.986C131.322 338.077 131.277 338.169 131.227 338.26C131.222 338.152 131.222 338.046 131.216 337.944ZM130.61 338.715C130.614 338.854 130.624 338.994 130.628 339.133C130.63 339.229 130.627 339.324 130.629 339.42C128.439 343.81 126.867 348.382 125.92 352.931C125.993 352.09 126.049 351.252 126.1 350.412C127.14 346.456 128.644 342.518 130.61 338.715ZM125.469 350.328C125.111 351.691 124.808 353.049 124.558 354.406C124.857 351.555 125.011 348.686 125.012 345.813C125.196 345.419 125.386 345.027 125.585 344.642C125.61 346.538 125.571 348.437 125.469 350.328ZM124.987 343.811C124.989 343.774 124.986 343.736 124.984 343.693C125.078 343.515 125.167 343.337 125.266 343.16L125.558 343.24C125.558 343.266 125.559 343.288 125.56 343.309C125.365 343.674 125.18 344.041 124.996 344.402C124.993 344.205 124.995 344.009 124.987 343.811ZM110.218 315.422C107.906 311.338 105.134 307.507 102.451 303.794C97.7656 297.313 92.9181 290.607 90.5945 282.569C87.3308 271.289 88.9135 257.312 95.3009 241.035C101.887 224.24 111.807 208.599 121.4 193.478C129.294 181.034 137.459 168.166 143.808 154.659C150.03 141.413 150.807 127.27 146.051 113.758C142.002 102.257 134.134 91.7719 123.898 84.2337C120.912 82.0329 117.702 80.021 114.582 78.0642C107.343 73.5206 99.8574 68.8269 95.0906 61.612C87.3846 49.9429 87.8709 31.6203 96.2828 15.9495L96.6045 16.0404C88.3407 31.5283 87.9045 49.6272 95.5512 61.1942C100.307 68.3856 107.788 73.0732 115.031 77.6015C118.141 79.5511 121.36 81.5701 124.361 83.774C134.638 91.3254 142.532 101.842 146.599 113.379C151.397 127 150.61 141.274 144.317 154.665C137.94 168.23 129.753 181.131 121.837 193.602C112.253 208.704 102.345 224.315 95.7748 241.055C89.4355 257.225 87.8578 271.096 91.099 282.277C93.4124 290.26 98.2497 296.937 102.922 303.4C105.611 307.114 108.396 310.958 110.72 315.061C116.094 324.527 119.126 335.878 119.528 347.925L119.407 347.89L119.288 348.116C119.179 348.312 119.08 348.515 118.977 348.712C118.671 336.504 115.65 324.996 110.218 315.422ZM118.99 350.058C119.174 349.692 119.363 349.331 119.558 348.966C119.565 349.201 119.56 349.434 119.566 349.674C119.369 350.049 119.181 350.431 118.998 350.814C119 350.565 118.993 350.309 118.99 350.058ZM113.834 356.241C113.635 356.652 113.436 357.064 113.246 357.483C113.248 357.207 113.259 356.938 113.261 356.663C113.444 356.28 113.633 355.892 113.827 355.506C113.831 355.751 113.835 355.997 113.834 356.241ZM105.455 389.472L105.32 389.774L106.993 390.438L107.118 390.16C107.409 389.528 107.685 388.888 107.957 388.246C108.819 392.678 110.386 396.768 112.681 400.27C117.487 407.61 124.983 412.358 132.247 416.965C135.326 418.914 138.503 420.93 141.453 423.124C151.524 430.613 159.257 441.002 163.229 452.381C167.89 465.731 167.113 479.688 160.984 492.735C157.639 499.852 153.786 506.794 149.735 513.59C152.4 508.87 154.936 504.071 157.232 499.176C163.551 485.711 164.368 471.316 159.59 457.539C155.552 445.881 147.685 435.231 137.439 427.553C134.455 425.315 131.267 423.276 128.178 421.299C121.085 416.768 113.752 412.079 109.137 404.984C106.318 400.645 104.639 395.385 104.087 389.698C105.363 386.156 106.396 382.506 107.185 378.797C107.14 380.801 107.218 382.776 107.421 384.708C106.813 386.318 106.165 387.909 105.455 389.472ZM107.584 386.047C107.631 386.396 107.689 386.743 107.748 387.089C107.396 387.943 107.042 388.786 106.667 389.624L106.17 389.429C106.668 388.318 107.139 387.185 107.584 386.047ZM100.024 394.957L99.8844 395.258L101.557 395.927L101.681 395.649C102.06 394.817 102.414 393.974 102.764 393.13C103.57 397.918 105.188 402.336 107.63 406.091C112.398 413.433 119.851 418.211 127.065 422.829C130.125 424.79 133.29 426.814 136.227 429.021C146.235 436.535 153.916 446.945 157.856 458.324C162.479 471.676 161.691 485.61 155.585 498.619C153.984 502.032 152.263 505.406 150.466 508.739C151.03 507.592 151.594 506.441 152.134 505.285C158.435 491.853 159.26 477.47 154.525 463.692C150.514 452.033 142.694 441.361 132.507 433.653C129.542 431.403 126.366 429.355 123.299 427.372C116.249 422.813 108.952 418.104 104.366 410.994C101.381 406.371 99.6878 400.705 99.2632 394.592C100.479 391.085 101.465 387.485 102.207 383.825C102.132 385.69 102.162 387.529 102.301 389.33C101.612 391.238 100.854 393.115 100.024 394.957ZM102.444 390.798C102.481 391.167 102.525 391.532 102.574 391.897C102.147 392.975 101.703 394.05 101.225 395.112L100.739 394.914C101.344 393.563 101.911 392.19 102.444 390.798ZM122.192 428.898C125.235 430.866 128.376 432.901 131.296 435.115C141.25 442.661 148.88 453.088 152.792 464.471C157.378 477.827 156.583 491.743 150.498 504.724C149.954 505.88 149.395 507.027 148.825 508.177C153.733 495.768 154.085 482.661 149.778 470.035C145.795 458.372 138.021 447.677 127.89 439.932C124.936 437.679 121.779 435.614 118.73 433.623C111.711 429.039 104.452 424.3 99.8898 417.179C96.9721 412.618 95.2963 407.051 94.8452 401.044L96.4224 401.683L96.5521 401.407C97.0208 400.364 97.466 399.305 97.8918 398.238C98.636 403.363 100.285 408.107 102.86 412.1C107.599 419.453 115.016 424.25 122.192 428.898ZM103.821 460.196C96.9154 455.496 89.7709 450.637 85.2881 443.436C82.0751 438.279 80.4054 431.885 80.2453 425.06C80.7906 423.766 81.3022 422.456 81.7791 421.133C82.2527 427.293 83.955 433.019 86.9136 437.748C91.564 445.174 98.8463 450.087 105.891 454.836C108.881 456.857 111.975 458.941 114.843 461.199C124.617 468.899 132.103 479.435 135.92 490.874C139.437 501.419 139.666 512.258 136.682 522.666C137.912 514.202 137.152 505.567 134.342 497.118C130.451 485.389 122.815 474.567 112.839 466.656C109.933 464.349 106.828 462.236 103.821 460.196ZM81.6702 415.699C81.2924 417.005 80.8809 418.293 80.4347 419.568C80.7204 416.465 81.3012 413.32 82.1752 410.197C81.9068 412.044 81.7354 413.885 81.6702 415.699ZM83.6997 405.546C83.8223 405.225 83.9397 404.903 84.0725 404.585C83.6856 407.237 83.165 409.869 82.5309 412.456C82.7656 410.166 83.1535 407.853 83.6997 405.546ZM105.736 366.302L105.927 365.958L104.367 365.497L104.248 365.723C104.12 365.963 103.999 366.199 103.877 366.435C103.872 366.062 103.877 365.691 103.867 365.317C103.611 352.939 100.609 341.227 95.1891 331.46C92.8975 327.326 90.1607 323.454 87.5056 319.705C82.9554 313.266 78.252 306.611 76.0275 298.741C72.9058 287.707 74.4845 274.043 80.7197 258.128C83.2031 251.789 86.1687 245.615 89.4162 239.572C87.4473 243.576 85.6194 247.646 83.9998 251.789C77.6033 268.112 76.0032 282.175 79.2465 293.584C81.566 301.723 86.3757 308.484 91.0372 315.03C93.6698 318.733 96.3893 322.559 98.6553 326.607C103.966 336.125 106.909 347.548 107.172 359.652C107.2 360.89 107.187 362.125 107.158 363.362C105.627 366.742 104.445 370.208 103.617 373.686C103.706 372.525 103.779 371.365 103.825 370.201C104.406 368.888 105.044 367.587 105.736 366.302ZM103.864 368.599C103.868 368.34 103.878 368.076 103.878 367.811C104.142 367.29 104.405 366.769 104.683 366.256L104.995 366.345C104.596 367.088 104.223 367.842 103.864 368.599ZM107.794 363.5C107.983 363.086 108.178 362.668 108.377 362.257C108.377 362.522 108.366 362.791 108.361 363.055C108.157 363.493 107.963 363.932 107.768 364.376C107.779 364.081 107.784 363.79 107.794 363.5ZM103.272 386.523C103.134 386.947 102.986 387.369 102.842 387.797C102.516 380.472 103.949 372.584 107.102 365.077C107.086 365.419 107.071 365.761 107.051 366.102C104.376 372.866 103.112 379.906 103.272 386.523ZM106.892 368.36C106.43 373.829 105.423 379.241 103.899 384.471C104.006 379.208 105.008 373.72 106.892 368.36ZM98.5284 391.014C98.3835 391.5 98.2323 391.991 98.0761 392.48C97.9804 385.917 99.2595 378.96 101.899 372.264C101.876 372.674 101.837 373.08 101.808 373.489C99.6794 379.304 98.583 385.294 98.5284 391.014ZM101.554 376.221C101.095 380.379 100.321 384.489 99.2483 388.502C99.4991 384.457 100.274 380.315 101.554 376.221ZM99.1587 391.13C100.866 385.458 101.968 379.571 102.432 373.614C102.648 373.035 102.875 372.459 103.107 371.884C102.692 379.035 101.366 386.116 99.1742 392.859C99.1568 392.282 99.1547 391.708 99.1587 391.13ZM103.195 370.059C102.982 370.542 102.772 371.031 102.573 371.523C102.587 371.191 102.605 370.86 102.618 370.528C102.814 370.078 103.009 369.634 103.214 369.192C103.209 369.483 103.205 369.769 103.195 370.059ZM101.989 370.381C101.741 370.958 101.508 371.538 101.28 372.119L99.9278 371.711L99.8083 371.937C99.5499 372.406 99.3069 372.877 99.0679 373.356C99.0658 372.702 99.0688 372.049 99.0565 371.393C98.811 359.017 95.8302 347.304 90.4441 337.527C88.1638 333.391 85.4443 329.512 82.8066 325.755C78.285 319.306 73.6061 312.635 71.3979 304.763C68.3028 293.729 69.8846 280.076 76.1014 264.2C77.4799 260.678 79.0117 257.213 80.6518 253.791C80.1105 255.064 79.5836 256.345 79.0771 257.63C72.698 273.919 71.0968 287.961 74.3136 299.37C76.6116 307.51 81.3978 314.283 86.0297 320.844C88.646 324.548 91.3492 328.376 93.5927 332.431C98.8704 341.952 101.792 353.377 102.04 365.473C102.074 367.11 102.055 368.747 101.989 370.381ZM100.243 372.47L100.549 372.563C100.006 373.58 99.5022 374.611 99.0283 375.653C99.0344 375.383 99.0395 375.119 99.0456 374.849C99.4234 374.048 99.8207 373.256 100.243 372.47ZM100.702 373.656C99.9068 375.855 99.2594 378.084 98.7561 380.31C98.8377 379.343 98.903 378.379 98.9529 377.412C99.488 376.143 100.068 374.889 100.702 373.656ZM93.0248 399.23C92.31 401.371 91.5074 403.473 90.6179 405.532C90.6098 405.36 90.6118 405.191 90.6087 405.02C91.6298 401.825 92.4537 398.553 93.0857 395.232C93.0082 396.577 92.9909 397.912 93.0248 399.23ZM94.091 398.015C94.0921 398.541 94.1044 399.064 94.128 399.584C93.9942 399.987 93.8615 400.385 93.7236 400.783C93.6919 400.304 93.6714 399.822 93.6571 399.335C93.8031 398.897 93.9491 398.459 94.091 398.015ZM117.624 435.144C120.649 437.125 123.777 439.168 126.674 441.389C136.573 448.971 144.168 459.417 148.051 470.811C152.603 484.176 151.8 498.08 145.733 511.027C145.704 511.09 145.671 511.153 145.642 511.216C149.317 499.873 149.252 488.026 145.372 476.564C141.412 464.884 133.681 454.166 123.593 446.387C120.659 444.116 117.514 442.043 114.478 440.039C107.491 435.429 100.269 430.666 95.7312 423.529C92.8175 418.947 91.152 413.356 90.7142 407.336L91.6182 407.702L91.7428 407.424C92.3126 406.168 92.8436 404.893 93.346 403.602C94.0228 409.038 95.6944 414.067 98.3853 418.275C103.1 425.645 110.474 430.47 117.624 435.144ZM107.013 453.339C100.08 448.671 92.9132 443.845 88.415 436.667C85.4023 431.864 83.7428 425.977 83.402 419.657C84.076 418.145 84.6979 416.602 85.2748 415.044C85.8107 420.999 87.514 426.534 90.4011 431.116C95.0668 438.518 102.377 443.399 109.453 448.123C112.456 450.13 115.558 452.201 118.435 454.443C128.245 462.098 135.764 472.604 139.599 484.025C143.461 495.531 143.392 507.404 139.468 518.693C141.392 509.256 140.795 499.566 137.639 490.113C133.722 478.405 126.061 467.626 116.056 459.757C113.141 457.464 110.023 455.365 107.013 453.339ZM82.3438 419.504C82.4724 419.126 82.6001 418.753 82.7236 418.374C82.7308 418.763 82.7492 419.149 82.7677 419.535C82.7483 419.579 82.7299 419.618 82.7166 419.658L82.3438 419.504ZM140.198 483.821C136.326 472.286 128.733 461.675 118.822 453.942C115.932 451.686 112.815 449.607 109.803 447.593C102.788 442.908 95.5346 438.064 90.9363 430.777C87.8806 425.922 86.1783 419.984 85.8027 413.599C85.8191 413.543 85.8354 413.488 85.8569 413.434L86.2583 413.605C86.6716 419.827 88.3658 425.621 91.3632 430.368C95.9543 437.638 103.205 442.471 110.217 447.144C113.23 449.154 116.352 451.233 119.256 453.497C129.201 461.248 136.821 471.886 140.716 483.462C144.737 495.415 144.594 507.772 140.357 519.508C139.633 521.004 138.889 522.491 138.127 523.97C138.186 523.78 138.23 523.586 138.289 523.396C143.952 510.661 144.627 497.002 140.198 483.821ZM140.944 519.758C141.261 519.104 141.577 518.45 141.885 517.789C148.007 504.726 148.826 490.665 144.249 477.131C140.349 465.606 132.723 455.026 122.771 447.338C119.859 445.088 116.735 443.019 113.708 441.022C106.667 436.364 99.3806 431.551 94.7629 424.281C91.8064 419.621 90.1112 413.939 89.6499 407.824C89.7816 407.457 89.9154 407.08 90.043 406.707C90.0451 406.75 90.0471 406.793 90.0502 406.831L89.9583 407.025L90.0563 407.066C90.4707 413.31 92.1771 419.122 95.196 423.868C99.8065 431.121 107.084 435.927 114.128 440.57C117.154 442.571 120.289 444.637 123.206 446.888C133.197 454.595 140.854 465.208 144.768 476.767C149.391 490.412 148.556 504.607 142.362 517.821C142.326 517.894 142.296 517.962 142.261 518.035C141.474 519.55 140.664 521.056 139.843 522.555C140.237 521.624 140.603 520.694 140.944 519.758ZM89.0053 407.727C88.3528 409.53 87.6401 411.315 86.867 413.057C86.8445 412.665 86.822 412.273 86.8117 411.872C87.5848 410.077 88.2904 408.248 88.9327 406.39C88.9501 406.834 88.9777 407.281 89.0053 407.727ZM89.5547 406.174C89.5352 405.661 89.5209 405.148 89.5188 404.627C89.676 404.132 89.8241 403.631 89.9732 403.124C89.9651 403.723 89.9631 404.317 89.9723 404.909C89.8396 405.334 89.6977 405.751 89.5547 406.174ZM91.2882 406.882L90.8121 406.686C91.6475 404.819 92.4072 402.904 93.0975 400.966C93.1251 401.385 93.1589 401.801 93.1977 402.218C92.6065 403.794 91.9764 405.352 91.2882 406.882ZM90.6115 402.827C90.6339 402.024 90.6747 401.209 90.741 400.399C91.6854 396.764 92.3857 393.048 92.8276 389.296C93.0747 388.485 93.3422 387.678 93.6251 386.874C93.1364 392.295 92.1237 397.653 90.6115 402.827ZM96.9777 379.747C96.942 380.218 96.9012 380.688 96.8553 381.156C95.2501 385.972 94.3395 390.873 94.1378 395.629C93.9795 396.181 93.8161 396.733 93.6477 397.283C93.7308 391.553 94.8486 385.562 96.9777 379.747ZM96.4144 384.877C96.0654 387.314 95.608 389.735 95.0455 392.124C95.3241 389.72 95.7824 387.294 96.4144 384.877ZM94.7609 395.753C96.0903 391.042 97.0019 386.189 97.4845 381.277C97.7071 380.615 97.9461 379.951 98.1993 379.295C97.7291 385.58 96.5561 391.794 94.7161 397.757C94.7161 397.093 94.7334 396.422 94.7609 395.753ZM98.3237 377.265C98.1011 377.794 97.8887 378.325 97.6865 378.858C97.712 378.491 97.7314 378.129 97.7507 377.766C97.9488 377.28 98.1561 376.801 98.3696 376.318C98.3594 376.634 98.339 376.949 98.3237 377.265ZM97.1205 377.624C97.0214 377.881 96.9183 378.131 96.8192 378.387L95.8039 378.073L95.6783 378.303C95.2984 379.008 94.9389 379.716 94.5886 380.433C94.6008 379.521 94.6017 378.613 94.5863 377.707C94.35 365.338 91.3907 353.624 86.0353 343.827C83.7672 339.682 81.0651 335.796 78.4447 332.032C73.9415 325.571 69.2871 318.883 67.0902 311.008C64.0185 299.963 65.6034 286.321 71.8089 270.475C72.2674 269.297 72.7504 268.13 73.2437 266.964C67.9134 281.833 66.7125 294.749 69.6901 305.388C71.9719 313.53 76.7233 320.317 81.3236 326.877C83.9276 330.59 86.6185 334.426 88.8539 338.495C94.0969 348.031 96.997 359.456 97.2322 371.539C97.2722 373.57 97.2326 375.602 97.1205 377.624ZM96.1135 378.836L96.4189 378.929C95.7306 380.22 95.1005 381.539 94.5215 382.868C94.5327 382.572 94.5439 382.277 94.5551 381.982C95.0381 380.921 95.5559 379.872 96.1135 378.836ZM95.4029 382.444C94.9629 383.875 94.5902 385.314 94.2706 386.753C94.3308 386.08 94.3808 385.405 94.4267 384.724C94.733 383.962 95.0608 383.199 95.4029 382.444ZM93.8005 384.588C93.5636 385.188 93.338 385.786 93.1225 386.386C93.1378 386.176 93.1541 385.962 93.1694 385.752C93.2307 385.632 93.292 385.511 93.3573 385.397L93.5371 385.056L93.2817 384.978C93.4655 384.51 93.6534 384.049 93.8464 383.588C93.8332 383.92 93.8189 384.257 93.8005 384.588ZM92.6075 384.764L92.0018 384.579L91.8772 384.804C91.3737 385.728 90.905 386.665 90.4608 387.612C90.4831 386.49 90.4942 385.372 90.4737 384.252C90.2476 371.885 87.3118 360.16 81.9809 350.346C79.7251 346.193 77.0301 342.298 74.422 338.526C69.9433 332.049 65.3073 325.349 63.1287 317.461C60.2206 306.926 61.5338 294.059 67.0132 279.189C63.3843 291.55 62.835 302.43 65.3895 311.624C67.6539 319.773 72.387 326.572 76.9576 333.148C79.5494 336.869 82.227 340.718 84.446 344.79C89.6656 354.336 92.5432 365.768 92.7682 377.848C92.8113 380.157 92.7584 382.467 92.6075 384.764ZM92.3124 385.337L92.4523 385.381C92.294 385.8 92.1409 386.221 91.9938 386.638C91.4036 387.811 90.8634 388.999 90.364 390.195C90.3793 389.879 90.3997 389.565 90.4099 389.248C90.9919 387.93 91.62 386.622 92.3124 385.337ZM92.3872 387.434C92.33 388.012 92.2739 388.585 92.2066 389.161C91.0946 392.864 90.3994 396.607 90.1159 400.285C89.9402 400.951 89.7554 401.61 89.5645 402.272C89.7795 397.397 90.7217 392.364 92.3872 387.434ZM88.8976 394.103C88.9038 394.046 88.9099 393.989 88.916 393.931C88.9681 393.83 89.0151 393.728 89.061 393.631C89.0079 393.79 88.9497 393.949 88.8976 394.103ZM90.1774 392.989C90.1947 392.742 90.2131 392.491 90.2355 392.246C90.3387 391.969 90.4408 391.697 90.549 391.422C90.4183 391.943 90.2927 392.465 90.1774 392.989ZM89.6502 391.561L89.4755 391.504C89.5439 391.322 89.6174 391.14 89.691 390.958C89.6777 391.157 89.6644 391.356 89.6502 391.561ZM88.5 391.283L88.4163 391.436C87.8015 392.572 87.2378 393.718 86.7026 394.881C86.7423 393.593 86.7545 392.31 86.7308 391.02C86.515 378.654 83.5924 366.916 78.2921 357.082C76.0404 352.909 73.3577 349.005 70.7618 345.225C66.3036 338.725 61.687 332.008 59.5207 324.112C56.963 314.8 57.6983 303.682 61.6652 290.984C59.3466 301.148 59.2597 310.219 61.4291 318.072C63.6812 326.229 68.3898 333.045 72.942 339.632C75.5154 343.366 78.1808 347.223 80.3926 351.304C85.5815 360.871 88.4418 372.31 88.6617 384.389C88.7007 386.692 88.6448 388.991 88.5 391.283ZM88.0886 393.447C87.8108 394.252 87.5545 395.056 87.3177 395.869C87.0654 396.44 86.8224 397.018 86.5906 397.594C86.6089 397.263 86.6222 396.931 86.6405 396.6C87.0868 395.536 87.5678 394.485 88.0886 393.447ZM87.9111 396.089C87.9704 395.952 88.0347 395.816 88.095 395.674C88.0103 396.39 87.9143 397.109 87.8092 397.821C87.2221 400.121 86.7872 402.429 86.5158 404.717C86.3085 405.595 86.0849 406.474 85.8521 407.346C86.1224 403.629 86.8053 399.841 87.9111 396.089ZM89.3716 394.708C88.8941 399.223 88.056 403.681 86.8655 408.016C86.9225 406.96 87.0133 405.895 87.1429 404.821C87.6667 402.546 88.1067 400.239 88.4435 397.916C88.7161 396.845 89.0255 395.775 89.3716 394.708ZM88.9567 401.832C88.9098 402.731 88.8844 403.629 88.8875 404.517C88.3606 406.169 87.7745 407.8 87.1404 409.404C87.8653 406.92 88.4616 404.389 88.9567 401.832ZM86.164 410.436C86.0251 410.892 85.8801 411.351 85.731 411.805C85.7238 411.23 85.7217 410.656 85.7319 410.074C85.8993 409.528 86.0627 408.977 86.2159 408.423C86.1873 409.097 86.1649 409.767 86.164 410.436ZM85.1016 409.958C84.9291 410.529 84.7534 411.089 84.5717 411.653C84.7718 410.785 84.9525 409.907 85.1271 409.034C85.1128 409.344 85.1098 409.652 85.1016 409.958ZM89.1393 409.209C89.7456 414.918 91.4326 420.216 94.2277 424.62C98.9179 432.006 106.261 436.857 113.358 441.552C116.376 443.542 119.49 445.604 122.384 447.839C132.239 455.455 139.79 465.93 143.645 477.334C147.865 489.81 147.442 502.743 142.45 514.907C145.2 504.499 144.836 493.724 141.319 483.259C137.383 471.568 129.69 460.82 119.648 452.997C116.721 450.717 113.595 448.632 110.566 446.619C103.612 441.978 96.417 437.183 91.8984 430.029C89.0103 425.452 87.358 419.874 86.9151 413.879L87.1511 413.974L87.2767 413.691C87.9425 412.22 88.5603 410.724 89.1393 409.209ZM85.1643 413.498C84.6078 415.086 83.9982 416.648 83.3508 418.186C83.3374 417.748 83.3353 417.307 83.3394 416.861C83.9786 415.284 84.5658 413.675 85.1039 412.046C85.1183 412.532 85.1377 413.019 85.1643 413.498ZM82.7203 416.212C82.5733 416.708 82.4211 417.204 82.269 417.699C82.2659 417.077 82.275 416.447 82.2943 415.819C82.4802 415.181 82.6548 414.547 82.8202 413.905C82.7671 414.675 82.7356 415.445 82.7203 416.212ZM81.6408 417.972C81.645 418.376 81.6491 418.781 81.6645 419.182C81.6175 419.284 81.5746 419.393 81.5276 419.495L81.3939 419.792L81.5552 419.861C81.1478 421.049 80.7057 422.225 80.24 423.386C80.2451 422.882 80.2614 422.375 80.2828 421.87C80.7678 420.586 81.2242 419.285 81.6408 417.972ZM136.523 490.671C132.666 479.118 125.105 468.476 115.235 460.698C112.349 458.427 109.245 456.335 106.245 454.312C99.2579 449.596 92.0318 444.72 87.4539 437.41C84.4064 432.541 82.7122 426.589 82.3438 420.194L82.8147 420.389C83.2403 426.551 84.9192 432.288 87.8747 437.006C92.4454 444.298 99.6685 449.163 106.654 453.862C109.659 455.887 112.767 457.979 115.663 460.258C125.568 468.048 133.16 478.722 137.035 490.316C140.674 501.21 140.87 512.424 137.688 523.186C137.536 523.522 137.399 523.861 137.242 524.196C136.843 525.051 136.433 525.904 136.02 526.751C140.33 515.046 140.525 502.672 136.523 490.671ZM142.825 518.323C144.033 515.999 145.201 513.661 146.306 511.296C152.45 498.199 153.26 484.132 148.65 470.606C144.725 459.098 137.062 448.543 127.062 440.887C124.141 438.651 121.003 436.601 117.955 434.605C110.881 429.978 103.563 425.19 98.9205 417.936C96.0804 413.491 94.3935 408.114 93.8382 402.309C93.972 401.958 94.1006 401.607 94.2303 401.251C94.7049 407.299 96.4031 412.913 99.3587 417.525C103.994 424.761 111.309 429.537 118.38 434.154C121.424 436.143 124.567 438.195 127.502 440.438C137.537 448.106 145.236 458.696 149.174 470.244C153.827 483.873 153.001 498.075 146.789 511.323C145.121 514.883 143.326 518.391 141.443 521.86C140.615 523.293 139.772 524.718 138.919 526.141C140.28 523.561 141.586 520.959 142.825 518.323ZM96.0964 400.869L95.6102 400.671C96.3312 399.057 96.9939 397.416 97.6076 395.754C97.6455 396.149 97.6833 396.544 97.7262 396.941C97.2167 398.268 96.6734 399.577 96.0964 400.869ZM94.8962 400.709L94.8288 400.86C94.8012 400.467 94.7838 400.076 94.7674 399.679C95.8998 396.273 96.8157 392.78 97.5089 389.233C97.4192 390.904 97.4183 392.556 97.5022 394.182C96.7293 396.401 95.8633 398.581 94.8962 400.709ZM98.1386 394.293C98.2795 393.88 98.4153 393.467 98.5501 393.058C98.5645 393.544 98.5901 394.027 98.6218 394.506C98.4962 394.869 98.3604 395.23 98.2297 395.591C98.1939 395.159 98.1632 394.728 98.1386 394.293ZM102.947 389.422C103.08 389.051 103.214 388.674 103.347 388.297C103.372 388.732 103.408 389.164 103.449 389.597C103.32 389.948 103.19 390.305 103.062 390.656C103.016 390.249 102.976 389.837 102.947 389.422ZM103.967 388.118C103.939 387.623 103.916 387.125 103.904 386.629C106.002 380.064 107.276 373.185 107.682 366.239C107.885 365.727 108.092 365.222 108.311 364.713C107.988 372.706 106.511 380.627 103.967 388.118ZM108.996 363.198C109.46 362.207 109.954 361.223 110.478 360.249L110.669 359.905L109.103 359.449L109.002 359.636C109.006 359.589 109.004 359.546 109.003 359.498C108.735 347.1 105.706 335.389 100.253 325.631C97.9438 321.504 95.1896 317.64 92.5233 313.893C87.9435 307.47 83.2063 300.824 80.9665 292.951C77.8183 281.917 79.3959 268.231 85.6485 252.283C89.633 242.101 94.8709 232.344 100.509 222.87C96.2548 230.417 92.3548 238.157 89.2126 246.17C82.7957 262.542 81.2017 276.628 84.4767 288.038C86.8115 296.18 91.659 302.938 96.344 309.473C98.994 313.168 101.736 316.988 104.017 321.04C109.367 330.549 112.339 341.984 112.61 354.1C112.631 354.901 112.635 355.704 112.628 356.51C110.99 359.948 109.726 363.482 108.824 367.036C108.91 365.757 108.964 364.477 108.996 363.198ZM109.017 361.684C109.022 361.451 109.014 361.221 109.013 360.987C109.15 360.727 109.283 360.462 109.42 360.202L109.736 360.292C109.49 360.753 109.253 361.221 109.017 361.684ZM114.459 355.001C114.456 354.777 114.458 354.554 114.455 354.331L114.756 354.417C114.654 354.609 114.561 354.809 114.459 355.001ZM138.115 160.314C144.318 147.112 145.101 132.992 140.386 119.483C136.375 107.984 128.562 97.4884 118.389 89.9258C115.421 87.7126 112.225 85.6875 109.126 83.7297C101.938 79.1698 94.4995 74.4536 89.7705 67.2356C82.1207 55.5511 82.6172 37.2571 90.9974 21.6384L91.3141 21.7283C83.0809 37.1692 82.6344 55.2396 90.2209 66.8157C94.9479 74.0174 102.383 78.7223 109.574 83.2721C112.667 85.2288 115.868 87.255 118.846 89.4702C129.054 97.0451 136.898 107.573 140.929 119.108C145.685 132.726 144.887 146.976 138.616 160.329C132.265 173.852 124.113 186.706 116.233 199.132C106.687 214.178 96.8206 229.738 90.276 246.431C83.956 262.557 82.3794 276.396 85.589 287.576C87.8778 295.549 92.6763 302.233 97.3296 308.714C99.997 312.429 102.76 316.274 105.065 320.368C110.512 330.029 113.533 341.643 113.813 353.953C113.815 354.022 113.812 354.091 113.815 354.155C113.627 354.51 113.44 354.866 113.256 355.228C113.253 354.845 113.254 354.468 113.245 354.084C112.968 341.865 109.968 330.329 104.568 320.73C102.276 316.65 99.5221 312.812 96.8598 309.098C92.2034 302.606 87.3927 295.903 85.0854 287.863C81.8524 276.588 83.4402 262.639 89.8031 246.405C96.3701 229.654 106.246 214.074 115.803 198.998C123.666 186.601 131.791 173.778 138.115 160.314ZM76.8014 39.7807L77.1078 39.8685C68.9543 55.1767 68.4639 73.201 75.9166 84.8354C80.5516 92.0718 87.8667 96.8483 94.9375 101.464C97.9816 103.454 101.125 105.506 104.06 107.749C114.095 115.417 121.79 126.001 125.732 137.555C130.385 151.184 129.559 165.386 123.348 178.629C121.679 182.194 119.884 185.702 118.001 189.171C117.173 190.604 116.33 192.029 115.483 193.448C116.839 190.867 118.146 188.26 119.389 185.629C120.592 183.304 121.76 180.967 122.864 178.607C129.003 165.509 129.814 151.437 125.208 137.917C121.284 126.404 113.62 115.853 103.619 108.198C100.685 105.954 97.5476 103.898 94.5127 101.916C87.4387 97.2886 80.1206 92.5009 75.4784 85.2471C67.9675 73.5055 68.5069 55.2625 76.8014 39.7807ZM98.7408 96.2016C101.783 98.1747 104.929 100.211 107.854 102.426C117.807 109.972 125.438 120.399 129.35 131.782C133.936 145.138 133.14 159.054 127.057 172.03C126.513 173.185 125.953 174.338 125.384 175.483C130.291 163.079 130.643 149.972 126.336 137.346C122.354 125.678 114.579 114.988 104.448 107.243C101.495 104.985 98.337 102.925 95.2878 100.934C88.269 96.3498 81.0102 91.6111 76.4477 84.4901C69.2464 73.2459 69.6071 55.8967 77.2612 40.9614C72.3056 54.7259 72.963 69.3998 79.4185 79.4061C84.1567 86.764 91.5739 91.5609 98.7408 96.2016ZM91.0363 107.35C84.0492 102.74 76.8271 97.9772 72.2891 90.8398C65.5086 80.1737 65.4814 64.0748 71.9619 49.7494C67.9889 62.717 68.9341 76.1897 74.9432 85.5863C79.658 92.9555 87.0322 97.781 94.1675 102.447C97.1922 104.427 100.321 106.471 103.232 108.699C113.131 116.281 120.725 126.728 124.609 138.122C129.161 151.487 128.358 165.391 122.291 178.338C122.262 178.401 122.228 178.464 122.2 178.527C125.875 167.184 125.81 155.337 121.93 143.875C117.97 132.195 110.239 121.477 100.151 113.698C97.2164 111.427 94.0722 109.354 91.0363 107.35ZM69.9101 52.7067L70.095 52.3666L69.8396 52.289C70.6545 50.2052 71.596 48.152 72.6724 46.1417L72.9768 46.2397C64.8417 61.509 64.3421 79.5262 71.7539 91.179C76.3644 98.4317 83.6427 103.233 90.686 107.881C93.7127 109.877 96.8467 111.948 99.7642 114.199C109.75 121.905 117.412 132.519 121.326 144.078C125.944 157.722 125.114 171.918 118.92 185.132C118.884 185.204 118.849 185.272 118.819 185.345C118.032 186.861 117.222 188.362 116.402 189.86C116.795 188.935 117.162 187.999 117.503 187.064C117.82 186.41 118.136 185.756 118.443 185.1C124.566 172.031 125.384 157.976 120.807 144.442C116.907 132.917 109.281 122.337 99.3301 114.644C96.4178 112.394 93.293 110.33 90.2672 108.328C83.2198 103.674 75.9385 98.8618 71.3208 91.5917C65.1166 81.8162 64.4511 67.5815 69.1411 54.1889C69.3893 53.6915 69.6477 53.196 69.9101 52.7067ZM68.8703 52.6476L69.0102 52.6915C68.852 53.1113 68.6998 53.5271 68.5517 53.9489C67.7317 55.5803 67.0016 57.2402 66.3531 58.9164L66.0334 58.8154C66.8442 56.7254 67.7878 54.662 68.8703 52.6476ZM67.1079 58.7274C64.0276 70.843 65.2107 83.1522 70.7856 91.9309C75.4759 99.3164 82.8185 104.167 89.917 108.858C92.9335 110.853 96.0481 112.915 98.942 115.15C108.792 122.765 116.343 133.24 120.203 144.645C124.423 157.12 124.001 170.049 119.009 182.213C121.758 171.81 121.394 161.035 117.877 150.57C113.941 138.879 106.243 128.13 96.2011 120.307C93.2734 118.027 90.1475 115.942 87.1239 113.93C80.1694 109.289 72.9749 104.494 68.4563 97.3397C62.0998 87.2628 61.7132 72.3775 67.1079 58.7274ZM67.9211 97.6788C72.5122 104.949 79.7629 109.782 86.7746 114.455C89.7829 116.464 92.8996 118.542 95.814 120.808C105.76 128.554 113.379 139.196 117.274 150.773C121.29 162.724 121.153 175.078 116.916 186.813C116.192 188.31 115.448 189.797 114.684 191.28C114.739 191.089 114.788 190.897 114.846 190.712C120.51 177.971 121.185 164.313 116.756 151.132C112.884 139.597 105.291 128.986 95.3799 121.253C92.4849 118.996 89.3693 116.912 86.3558 114.902C79.3411 110.218 72.0874 105.374 67.4942 98.0875C61.7364 88.9482 60.7759 75.9505 64.4701 63.3946C64.8316 62.5693 65.2135 61.748 65.6199 60.9369C61.1229 74.0813 61.8344 88.033 67.9211 97.6788ZM83.5659 120.649C76.638 115.982 69.4711 111.156 64.9729 103.978C59.0455 94.5184 58.3372 80.8701 62.6871 67.9831C60.4453 79.1722 61.8336 90.2955 66.959 98.4266C71.6247 105.828 78.9346 110.71 86.0056 115.433C89.0098 117.435 92.1121 119.505 94.9928 121.754C104.803 129.409 112.321 139.915 116.157 151.336C120.018 162.842 119.95 174.715 116.026 186.004C117.949 176.567 117.353 166.877 114.197 157.424C110.28 145.716 102.615 134.931 92.6135 127.068C89.6991 124.775 86.5804 122.681 83.5659 120.649ZM113.081 157.982C109.224 146.429 101.664 135.782 91.7934 128.009C88.9157 125.745 85.8175 123.654 82.803 121.623C75.8158 116.907 68.5846 112.03 64.0118 104.721C56.8411 93.2705 57.1487 75.8151 64.6465 60.7583C64.3698 61.5581 64.1125 62.3671 63.8766 63.1751C57.583 77.4953 57.692 93.5574 64.4326 104.317C69.0043 111.604 76.2274 116.468 83.2115 121.173C86.2168 123.197 89.3253 125.29 92.2213 127.569C102.127 135.354 109.717 146.033 113.593 157.627C117.232 168.52 117.423 179.734 114.246 190.497C114.094 190.833 113.957 191.172 113.8 191.507C113.401 192.362 112.992 193.21 112.579 194.057C116.888 182.357 117.084 169.978 113.081 157.982ZM118.555 189.483C121.806 183.871 124.889 178.146 127.63 172.299C133.786 159.173 134.588 145.088 129.949 131.578C126.001 120.076 118.286 109.541 108.237 101.919C105.294 99.6891 102.138 97.6455 99.086 95.6704C91.9702 91.0665 84.6204 86.3043 79.9486 79.0659C72.3958 67.3478 72.922 49.0915 81.2419 33.5617L81.5525 33.6557C73.3744 49.0067 72.8983 67.0392 80.3878 78.6491C85.0524 85.8702 92.4042 90.6221 99.516 95.2199C102.569 97.1899 105.73 99.2345 108.683 101.466C118.766 109.106 126.513 119.668 130.48 131.206C135.165 144.831 134.348 159.046 128.119 172.322C123.428 182.32 117.755 191.942 111.935 201.29C111.274 202.337 110.613 203.384 109.954 204.426C107.997 207.519 106.026 210.63 104.07 213.772C103.791 214.21 103.518 214.649 103.24 215.082C103.32 214.944 103.402 214.801 103.484 214.658C108.655 206.487 113.869 198.123 118.555 189.483ZM102.509 214.219C103.488 212.673 104.461 211.125 105.441 209.568C105.289 209.825 105.136 210.086 104.984 210.343C104.969 210.366 104.959 210.385 104.944 210.409C104.059 211.809 103.167 213.214 102.28 214.625C102.354 214.491 102.435 214.353 102.509 214.219ZM104.607 214.113C105.215 213.145 105.827 212.184 106.433 211.222C108.442 208.054 110.468 204.853 112.479 201.622C119.677 190.244 126.949 178.499 132.721 166.199C138.896 153.034 139.69 138.937 135.013 125.425C131.033 113.927 123.271 103.415 113.168 95.8241C110.207 93.6018 107.033 91.5705 103.964 89.6025C96.8111 85.0232 89.4195 80.2845 84.7191 73.0563C77.1193 61.3606 77.6332 43.086 85.9777 27.5133L86.2944 27.6031C78.0867 42.9961 77.6229 61.047 85.1634 72.6405C89.8566 79.8514 97.2462 84.5737 104.418 89.1622C107.489 91.1251 110.663 93.1564 113.614 95.3716C123.763 102.977 131.551 113.516 135.549 125.054C140.269 138.671 139.462 152.908 133.212 166.217C126.883 179.702 118.762 192.51 110.911 204.899C101.408 219.889 91.5792 235.394 85.053 252.047C78.7514 268.134 77.1686 281.951 80.3526 293.126C82.6252 301.101 87.396 307.791 92.0126 314.269C94.6626 317.991 97.4035 321.843 99.6971 325.939C105.105 335.609 108.101 347.218 108.368 359.514C108.376 359.951 108.378 360.392 108.381 360.829C108.19 361.199 108.004 361.571 107.822 361.949C107.827 361.18 107.822 360.409 107.806 359.641C107.542 347.436 104.567 335.905 99.2058 326.298C96.9296 322.221 94.1979 318.376 91.5469 314.659C86.9282 308.165 82.1472 301.446 79.8603 293.41C76.6528 282.14 78.2468 268.214 84.5913 252.018C89.7879 238.748 97.0654 226.229 104.607 214.113ZM88.3733 239.262C88.8155 238.565 89.2587 237.862 89.6999 237.169C90.5925 235.76 91.4912 234.346 92.3869 232.921C87.7555 240.998 83.5001 249.293 80.1282 257.898C73.8461 273.942 72.2561 287.741 75.4136 298.916C77.6708 306.888 82.4069 313.592 86.9949 320.081C89.6337 323.806 92.3572 327.664 94.6334 331.768C100.002 341.446 102.978 353.051 103.231 365.334C103.246 366.112 103.255 366.889 103.248 367.669C103.051 368.07 102.855 368.467 102.668 368.87C102.693 367.733 102.697 366.597 102.676 365.456C102.425 353.264 99.4761 341.739 94.1483 332.123C91.8895 328.038 89.173 324.197 86.5404 320.468C81.9453 313.962 77.1928 307.233 74.9264 299.201C71.7465 287.926 73.3415 274.021 79.6675 257.865C82.1612 251.501 85.1288 245.317 88.3733 239.262ZM75.5109 263.965C69.24 279.979 67.6532 293.763 70.7841 304.938C73.0249 312.912 77.7324 319.626 82.2959 326.131C84.9173 329.863 87.6245 333.724 89.8885 337.836C95.2235 347.523 98.1767 359.134 98.4221 371.405C98.4417 372.503 98.4357 373.596 98.4133 374.691C98.2131 375.107 98.0222 375.531 97.8374 375.951C97.8872 374.479 97.9014 373 97.8716 371.528C97.6313 359.338 94.7036 347.812 89.4095 338.186C87.1578 334.093 84.4547 330.238 81.8424 326.513C77.2769 319.992 72.5531 313.253 70.303 305.218C67.1445 293.943 68.7426 280.049 75.0564 263.927C76.2726 260.819 77.6032 257.749 79.0268 254.72C79.52 253.767 80.0235 252.816 80.5321 251.866C81.1806 250.8 81.8291 249.735 82.4827 248.67C79.9112 253.67 77.5502 258.759 75.5109 263.965ZM79.5678 251.429C80.2112 250.362 80.8586 249.302 81.5102 248.248C81.3907 248.473 81.2753 248.705 81.1609 248.932C79.9794 250.937 78.8213 252.958 77.6867 254.994C78.3025 253.799 78.9336 252.608 79.5678 251.429ZM71.2175 270.245C64.9588 286.224 63.3689 299.998 66.4824 311.179C68.7008 319.159 73.39 325.886 77.9248 332.401C80.533 336.147 83.2279 340.015 85.4806 344.131C90.785 353.838 93.7168 365.45 93.952 377.719C93.9746 379.093 93.9645 380.472 93.9238 381.845C93.7176 382.293 93.5164 382.741 93.3244 383.197C93.4049 381.412 93.4384 379.624 93.4025 377.837C93.1764 365.656 90.2713 354.123 85.0067 344.482C82.7663 340.385 80.0815 336.518 77.4816 332.785C72.9344 326.252 68.2402 319.497 66.0024 311.455C62.8664 300.173 64.4665 286.296 70.764 270.203C70.9253 269.794 71.0959 269.392 71.2562 268.989C72.4367 266.431 73.6754 263.901 74.9683 261.392C75.0816 261.197 75.1899 261.001 75.2982 260.805C73.8378 263.912 72.4664 267.053 71.2175 270.245ZM74.0009 260.97C74.102 260.783 74.2083 260.598 74.3094 260.411C73.5598 262.008 72.8337 263.621 72.1332 265.239C71.1477 267.087 70.1908 268.951 69.2595 270.821C70.732 267.493 72.3231 264.21 74.0009 260.97ZM67.2622 276.721C61.0198 292.671 59.4207 306.437 62.5159 317.631C64.7271 325.62 69.3917 332.363 73.9021 338.895C76.499 342.643 79.1807 346.526 81.4211 350.649C86.701 360.372 89.6143 371.997 89.8394 384.263C89.8671 385.878 89.8489 387.484 89.7827 389.091C89.5744 389.575 89.3711 390.06 89.173 390.546C89.2862 388.492 89.3309 386.435 89.296 384.378C89.075 372.197 86.1923 360.658 80.9523 351.001C78.7252 346.891 76.0465 343.02 73.4649 339.275C68.9423 332.725 64.2665 325.958 62.0419 317.903C59.3024 307.986 60.2122 296.074 64.7327 282.44C65.7447 279.928 66.82 277.445 67.9647 274.986C67.7319 275.566 67.4899 276.139 67.2622 276.721ZM85.5593 391.141C85.3485 378.963 82.4801 367.405 77.2657 357.727C75.0456 353.608 72.3854 349.724 69.8059 345.969C65.3026 339.401 60.6472 332.612 58.4349 324.548C55.3357 313.242 56.9491 299.378 63.221 283.333C64.3678 280.412 65.6126 277.533 66.9371 274.68C66.6972 275.269 66.4582 275.854 66.2233 276.444C65.4605 278.4 64.7682 280.323 64.1412 282.21C63.983 282.603 63.8206 282.991 63.6674 283.385C57.4343 299.316 55.8311 313.076 58.9078 324.282C61.1017 332.278 65.751 339.045 70.243 345.589C72.8266 349.35 75.496 353.241 77.7334 357.379C82.9867 367.13 85.8817 378.766 86.0965 391.031C86.1274 392.843 86.0949 394.653 86.0093 396.463C85.7979 396.962 85.5957 397.469 85.3996 397.972C85.5454 395.701 85.5973 393.422 85.5593 391.141ZM85.216 400.325C85.3968 399.793 85.5877 399.263 85.7889 398.735L85.8737 398.762C85.8584 398.918 85.8492 399.071 85.8339 399.227C85.6174 399.646 85.406 400.066 85.1997 400.486C85.2048 400.434 85.2099 400.382 85.216 400.325ZM83.4922 413.386C83.7738 409.852 84.4404 406.251 85.4921 402.691C85.0563 406.306 84.3887 409.885 83.4922 413.386ZM83.7679 402.813C83.5249 403.657 83.2982 404.499 83.0971 405.346C81.063 410.739 79.9103 416.319 79.6597 421.719C79.5044 422.123 79.3492 422.528 79.1889 422.931C79.37 416.312 80.9035 409.385 83.7679 402.813ZM79.1697 424.648C79.3188 424.301 79.4638 423.947 79.6088 423.594C79.6058 424.034 79.6079 424.475 79.6161 424.913C79.4762 425.241 79.3363 425.568 79.1974 425.891C79.179 425.479 79.1759 425.069 79.1697 424.648ZM78.5713 426.048C78.5754 426.107 78.5784 426.171 78.5774 426.229L78.5039 426.199C78.5304 426.146 78.5508 426.097 78.5713 426.048ZM133.233 497.672C129.396 486.097 121.865 475.413 112.024 467.598C109.15 465.314 106.06 463.209 103.064 461.165C96.0932 456.42 88.8895 451.512 84.327 444.179C81.3377 439.364 79.6517 433.503 79.2578 427.21L79.3017 427.229L79.4273 426.946C79.5121 426.761 79.5866 426.575 79.6714 426.39C80.003 432.835 81.684 438.854 84.7478 443.774C89.2991 451.084 96.4997 455.981 103.466 460.72C106.458 462.757 109.555 464.858 112.448 467.152C122.322 474.989 129.885 485.7 133.74 497.317C137.026 507.21 137.478 517.355 135.175 527.177C134.756 528.262 134.312 529.342 133.822 530.412C137.016 519.721 136.838 508.548 133.233 497.672ZM129.984 542.493C134.128 535.87 138.23 529.11 141.996 522.178C145.248 516.56 148.33 510.84 151.071 504.993C157.228 491.862 158.035 477.783 153.391 464.267C149.444 452.765 141.729 442.231 131.679 434.608C128.745 432.385 125.59 430.342 122.528 428.359C115.417 423.757 108.062 418.993 103.391 411.755C100.678 407.548 99.0159 402.499 98.3718 397.033C98.5025 396.697 98.624 396.355 98.7496 396.019C99.3273 401.712 101.015 406.978 103.835 411.339C108.495 418.559 115.846 423.311 122.958 427.909C126.011 429.879 129.172 431.924 132.125 434.155C142.214 441.796 149.955 452.357 153.922 463.895C158.608 477.52 157.79 491.735 151.562 505.011C146.868 515.02 141.189 524.645 135.361 534.008C134.707 535.045 134.048 536.082 133.396 537.115C132.247 538.93 131.091 540.755 129.939 542.585C129.95 542.555 129.966 542.527 129.984 542.493ZM97.7576 593.096C97.7412 593.124 97.73 593.154 97.7126 593.188C97.6646 593.268 97.6166 593.349 97.5686 593.43C97.634 593.315 97.6932 593.205 97.7576 593.096ZM98.7453 593.495C98.727 593.534 98.7045 593.566 98.6861 593.605C98.6279 593.71 98.5707 593.811 98.5074 593.915C98.584 593.771 98.6647 593.633 98.7453 593.495ZM93.397 601.97C93.7105 601.412 94.024 600.853 94.3376 600.294C93.783 601.368 93.2336 602.442 92.6995 603.52C92.9303 603.003 93.1662 602.487 93.397 601.97ZM86.6621 616.027C87.4525 614.013 88.2858 612.023 89.164 610.047C89.3887 609.588 89.6235 609.13 89.8533 608.671C89.7961 608.825 89.7287 608.976 89.6654 609.133C89.1977 610.33 88.7648 611.513 88.3492 612.689C87.5026 614.453 86.6897 616.234 85.9116 618.028C86.1566 617.36 86.4007 616.697 86.6621 616.027ZM105.657 730.81C105.453 718.622 102.598 707.052 97.4052 697.346C95.1923 693.217 92.5402 689.32 89.9729 685.556C85.4851 678.965 80.8449 672.153 78.6449 664.08C75.56 652.756 77.1744 638.887 83.4412 622.867C83.6567 622.32 83.8824 621.776 84.103 621.231C83.4035 623.322 82.7806 625.375 82.2466 627.382C77.4086 641.409 76.3425 653.651 79.1127 663.813C81.2984 671.824 85.9283 678.608 90.405 685.175C92.9804 688.951 95.6417 692.856 97.8668 697.002C103.105 706.776 105.98 718.43 106.188 730.704C106.322 738.326 105.417 745.932 103.543 753.211C102.924 754.925 102.253 756.607 101.524 758.262C104.39 749.529 105.812 740.184 105.657 730.81ZM80.6315 634.851C79.2361 643.187 79.4371 650.737 81.2693 657.408C83.5041 665.572 88.1932 672.405 92.724 679.021C95.2913 682.758 97.9484 686.63 100.148 690.718C105.317 700.308 108.157 711.764 108.367 723.842C108.503 731.56 107.552 739.267 105.598 746.621C106.5 741.394 106.916 736.044 106.827 730.694C106.614 718.318 103.709 706.568 98.4255 696.705C96.1851 692.529 93.5166 688.607 90.9289 684.812C86.4799 678.293 81.8837 671.553 79.7256 663.643C77.4755 655.396 77.789 645.75 80.6315 634.851ZM104.97 752.184L104.836 752.481L104.997 752.551C104.279 754.627 103.484 756.667 102.603 758.658C103.171 756.929 103.691 755.179 104.147 753.406C107.506 744.065 109.18 733.963 109.001 723.83C108.791 711.652 105.922 700.094 100.708 690.416C98.4877 686.297 95.8275 682.413 93.2479 678.658C88.7447 672.091 84.0893 665.302 81.877 657.238C79.5493 648.741 79.8792 638.801 82.8493 627.582C83.3537 626.121 83.8868 624.65 84.4729 623.153C84.6904 622.596 84.9182 622.042 85.1448 621.492C80.5744 635.137 79.6267 647.052 82.3499 656.971C84.5489 664.969 89.1931 671.734 93.6851 678.278C96.2677 682.045 98.9422 685.936 101.175 690.074C106.429 699.819 109.324 711.456 109.539 723.72C109.702 732.92 108.356 742.1 105.609 750.713C105.399 751.207 105.189 751.697 104.97 752.184ZM85.1124 623.674C82.7887 633.837 82.7018 642.908 84.8712 650.761C87.1243 658.913 91.8319 665.734 96.3841 672.322C98.9575 676.055 101.623 679.912 103.835 683.993C109.024 693.56 111.883 705.004 112.104 717.078C112.269 726.374 110.865 735.659 108.014 744.342C109.557 737.629 110.299 730.676 110.173 723.709C109.957 711.343 107.04 699.606 101.734 689.771C99.4866 685.604 96.8049 681.695 94.208 677.92C89.7447 671.419 85.1291 664.697 82.9628 656.801C80.4051 647.489 81.1404 636.371 85.1124 623.674ZM106.159 752.347L105.786 752.193C105.928 751.775 106.069 751.363 106.2 750.943C110.691 740.437 112.95 728.762 112.738 717.067C112.517 704.886 109.634 693.347 104.394 683.69C102.167 679.58 99.4886 675.709 96.907 671.964C92.3844 665.414 87.7045 658.641 85.484 650.592C82.7445 640.675 83.6533 628.768 88.1748 615.129C88.8099 613.546 89.4706 611.968 90.1661 610.402C90.3969 609.938 90.6338 609.47 90.8697 609.007C90.8166 609.14 90.7574 609.277 90.7043 609.41C84.4609 625.365 82.8628 639.126 85.958 650.32C88.1692 658.309 92.8328 665.058 97.3452 671.579C99.9411 675.332 102.623 679.215 104.862 683.343C110.142 693.067 113.056 704.686 113.281 716.953C113.504 729.203 111.043 741.437 106.159 752.347ZM90.4553 611.878C86.8275 624.234 86.277 635.119 88.8316 644.314C91.096 652.462 95.8291 659.262 100.4 665.837C102.991 669.558 105.669 673.407 107.888 677.479C113.107 687.031 115.984 698.462 116.21 710.538C116.418 721.377 114.472 732.2 110.582 742.093C112.932 734.007 114.068 725.48 113.916 716.941C113.69 704.574 110.754 692.849 105.423 683.036C103.167 678.883 100.472 674.987 97.864 671.215C93.3854 664.738 88.7494 658.038 86.5708 650.15C83.6627 639.615 84.9759 626.748 90.4553 611.878ZM94.6596 602.934C88.406 618.915 86.811 632.687 89.9245 643.868C92.148 651.849 96.831 658.58 101.371 665.096C103.975 668.836 106.675 672.706 108.922 676.825C114.227 686.527 117.159 698.139 117.394 710.408C117.627 722.66 115.164 734.904 110.269 745.839L109.788 745.642C114.636 734.809 117.078 722.672 116.845 710.526C116.619 698.345 113.713 686.812 108.449 677.171C106.209 673.069 103.524 669.207 100.924 665.474C96.3765 658.941 91.6823 652.186 89.4445 644.144C86.3085 632.862 87.9086 618.985 94.2061 602.892C94.3112 602.631 94.4205 602.377 94.5206 602.115C95.0996 601.078 95.6838 600.043 96.273 599.008C95.7155 600.309 95.1722 601.619 94.6596 602.934ZM98.953 596.654C92.6821 612.668 91.0953 626.452 94.2262 637.627C96.466 645.606 101.175 652.315 105.734 658.814C108.354 662.551 111.067 666.413 113.331 670.525C118.666 680.212 121.619 691.823 121.864 704.094C122.107 716.353 119.64 728.613 114.735 739.572L114.254 739.375C119.112 728.518 121.551 716.369 121.314 704.217C121.072 692.033 118.146 680.501 112.852 670.876C110.604 666.788 107.901 662.933 105.285 659.202C100.718 652.686 95.9941 645.947 93.7451 637.908C90.5866 626.632 92.1847 612.738 98.4985 596.616C99.1173 595.035 99.775 593.472 100.448 591.913C101.028 590.95 101.613 589.989 102.202 589.034C101.052 591.55 99.9599 594.088 98.953 596.654ZM103.018 584.103C103.66 583.042 104.307 581.987 104.953 580.932C104.834 581.157 104.718 581.389 104.603 581.621C103.708 583.147 102.824 584.675 101.954 586.212C101.842 586.402 101.725 586.586 101.608 586.775C102.073 585.88 102.543 584.991 103.018 584.103ZM102.563 587.231C103.028 586.336 103.498 585.448 103.973 584.56C104.623 583.489 105.271 582.424 105.924 581.365C105.5 582.183 105.09 583.009 104.676 583.835C103.972 584.963 103.262 586.096 102.563 587.231ZM103.57 590.587C97.2881 606.631 95.6982 620.431 98.8557 631.605C101.112 639.582 105.854 646.282 110.441 652.776C113.075 656.5 115.799 660.353 118.076 664.457C123.444 674.135 126.42 685.74 126.674 698.023C126.93 710.29 124.465 722.571 119.539 733.558L119.052 733.36C123.926 722.474 126.369 710.306 126.118 698.145C125.867 685.954 122.918 674.428 117.59 664.812C115.326 660.726 112.607 656.874 109.982 653.157C105.387 646.651 100.635 639.922 98.3685 631.89C95.1886 620.615 96.7836 606.71 103.11 590.554C104.41 587.239 105.837 583.976 107.369 580.751C108.062 579.646 108.76 578.548 109.457 577.45C107.306 581.758 105.316 586.13 103.57 590.587ZM110.021 575.374C110.606 574.227 111.211 573.089 111.815 571.951C112.264 571.25 112.707 570.547 113.15 569.844C114.042 568.439 114.934 567.03 115.827 565.62C114.883 567.259 113.964 568.907 113.059 570.564C112.046 572.178 111.031 573.776 110.021 575.374ZM108.5 584.737C102.193 600.823 100.616 614.642 103.795 625.815C106.067 633.79 110.838 640.48 115.451 646.952C118.105 650.68 120.847 654.527 123.138 658.633C128.547 668.298 131.543 679.907 131.81 692.203C132.08 704.484 129.61 716.785 124.668 727.801L124.181 727.603C129.066 716.692 131.508 704.502 131.248 692.33C130.984 680.125 128.009 668.594 122.653 658.988C120.372 654.91 117.635 651.064 114.989 647.348C110.37 640.854 105.589 634.135 103.302 626.099C100.095 614.83 101.689 600.903 108.033 584.707C110.81 577.619 114.187 570.742 117.872 564.026C120.645 559.503 123.358 554.915 125.922 550.243C126.624 549.098 127.33 547.954 128.042 546.811C128.656 545.84 129.269 544.873 129.882 543.907C131.885 540.738 133.911 537.542 135.92 534.316C143.113 522.937 150.391 511.188 156.163 498.888C162.338 485.723 163.132 471.626 158.454 458.119C154.476 446.616 146.719 436.106 136.605 428.512C133.653 426.297 130.475 424.26 127.406 422.292C120.253 417.712 112.856 412.973 108.161 405.745C105.59 401.79 103.95 397.08 103.227 391.98C103.356 391.655 103.478 391.334 103.602 391.009C104.282 396.323 105.941 401.228 108.605 405.33C113.299 412.54 120.688 417.263 127.842 421.837C130.917 423.806 134.096 425.838 137.061 428.062C147.205 435.666 154.992 446.21 158.991 457.743C163.711 471.36 162.905 485.598 156.654 498.907C150.325 512.391 142.21 525.195 134.358 537.589C124.85 552.578 115.021 568.083 108.5 584.737ZM113.663 399.505C118.39 406.706 125.826 411.411 133.016 415.961C136.109 417.918 139.305 419.943 142.288 422.159C152.496 429.734 160.34 440.262 164.371 451.797C169.127 465.415 168.329 479.665 162.059 493.018C155.707 506.541 147.556 519.39 139.668 531.83C130.128 546.872 120.263 562.428 113.718 579.12C107.398 595.246 105.822 609.085 109.031 620.265C111.319 628.243 116.122 634.929 120.764 641.391C123.435 645.112 126.198 648.957 128.507 653.057C133.953 662.723 136.975 674.333 137.255 686.642C137.538 698.941 135.064 711.263 130.109 722.313L129.612 722.118C134.519 711.175 136.965 698.965 136.688 686.773C136.41 674.554 133.41 663.018 128.01 653.42C125.713 649.338 122.964 645.501 120.302 641.787C115.645 635.295 110.836 628.587 108.528 620.552C105.294 609.277 106.882 595.329 113.245 579.094C119.811 562.348 129.687 546.768 139.244 531.693C147.102 519.294 155.231 506.478 161.557 493.003C167.76 479.801 168.543 465.681 163.828 452.172C159.817 440.673 152.004 430.178 141.831 422.615C138.867 420.408 135.676 418.384 132.574 416.42C125.38 411.859 117.942 407.143 113.213 399.925C110.795 396.233 109.195 391.882 108.396 387.165C108.522 386.856 108.647 386.546 108.773 386.237C109.533 391.148 111.156 395.679 113.663 399.505ZM108.589 384.925C108.463 385.261 108.338 385.597 108.207 385.933C108.155 385.556 108.109 385.175 108.068 384.795C108.203 384.439 108.334 384.078 108.458 383.72C108.499 384.127 108.541 384.528 108.589 384.925ZM112.597 358.097C112.589 358.403 112.581 358.71 112.569 359.01C109.336 366.655 107.92 374.695 108.341 382.125C108.203 382.527 108.075 382.926 107.931 383.328C107.317 375.265 108.888 366.422 112.597 358.097ZM112.48 360.942C112.076 367.558 110.863 374.109 108.908 380.379C108.796 374.084 109.99 367.396 112.48 360.942ZM109.08 383.584C109.037 383.135 109.005 382.682 108.975 382.225C111.456 374.833 112.888 367.03 113.197 359.162C113.395 358.702 113.598 358.244 113.807 357.786C113.753 360.102 113.6 362.408 113.354 364.701C113.02 366.478 112.772 368.25 112.623 370.005C111.825 374.636 110.639 379.185 109.08 383.584ZM113.248 370.119C113.549 368.347 113.794 366.563 113.987 364.775C114.845 360.272 116.304 355.736 118.363 351.362C118.358 351.648 118.349 351.933 118.345 352.219C114.535 360.704 112.984 369.742 113.726 377.932C113.6 378.295 113.458 378.659 113.328 379.021C113.016 376.144 112.991 373.159 113.248 370.119ZM118.296 353.925C117.998 361.582 116.628 369.18 114.246 376.395C113.845 369.181 115.203 361.374 118.296 353.925ZM112.397 384.422L111.894 384.226C112.295 383.34 112.671 382.438 113.038 381.534C113.094 381.864 113.156 382.195 113.218 382.52C112.952 383.158 112.682 383.794 112.397 384.422ZM118.993 393.883C123.749 401.075 131.235 405.763 138.472 410.296C141.582 412.245 144.802 414.259 147.803 416.463C158.079 424.02 165.974 434.531 170.041 446.068C174.839 459.69 174.052 473.963 167.758 487.359C161.381 500.924 153.195 513.82 145.278 526.297C135.695 541.393 125.787 557.004 119.217 573.744C112.878 589.914 111.3 603.786 114.541 614.966C116.855 622.949 121.692 629.626 126.374 636.096C129.062 639.815 131.842 643.653 134.162 647.75C139.652 657.409 142.703 669.035 142.996 681.357C143.291 693.675 140.816 706.028 135.839 717.111L135.341 716.916C140.261 705.939 142.708 693.696 142.422 681.492C142.133 669.255 139.103 657.708 133.66 648.112C131.347 644.032 128.576 640.196 125.893 636.483C121.208 630.002 116.36 623.297 114.037 615.258C110.773 603.978 112.355 590.006 118.743 573.724C125.329 556.929 135.249 541.288 144.843 526.162C152.737 513.718 160.901 500.855 167.25 487.348C173.472 474.102 174.249 459.959 169.493 446.447C165.445 434.946 157.576 424.461 147.34 416.923C144.349 414.721 141.135 412.703 138.024 410.753C130.785 406.21 123.299 401.516 118.538 394.302C116.282 390.893 114.736 386.908 113.878 382.594C114.001 382.295 114.121 381.989 114.24 381.684C115.071 386.189 116.653 390.34 118.993 393.883ZM114.04 380.48C113.913 380.795 113.786 381.115 113.659 381.429C113.601 381.083 113.544 380.732 113.496 380.382C113.628 380.042 113.756 379.696 113.882 379.355C113.929 379.731 113.982 380.108 114.04 380.48ZM114.501 379.234C114.454 378.832 114.407 378.429 114.366 378.023C117.241 369.834 118.807 361.123 118.976 352.361C119.173 351.933 119.37 351.505 119.577 351.079C119.563 353.116 119.47 355.147 119.315 357.172C118.58 360.371 118.144 363.561 118.013 366.69C117.174 370.967 115.994 375.167 114.501 379.234ZM118.638 366.777C119.256 363.634 119.69 360.449 119.942 357.249C120.907 353.087 122.382 348.925 124.364 344.908C124.371 345.164 124.373 345.42 124.375 345.675C119.967 354.976 118.298 364.999 119.414 373.896C119.285 374.247 119.157 374.598 119.023 374.949C118.647 372.314 118.525 369.575 118.638 366.777ZM118.407 379.516L117.9 379.319C118.205 378.641 118.501 377.957 118.782 377.27C118.849 377.575 118.909 377.884 118.98 378.191C118.791 378.631 118.601 379.077 118.407 379.516ZM124.574 388.471C129.367 395.659 136.9 400.331 144.197 404.849C147.33 406.792 150.568 408.799 153.586 410.996C163.926 418.523 171.886 429.026 175.989 440.57C180.834 454.201 180.052 468.502 173.733 481.936C167.334 495.539 159.11 508.485 151.152 521.012C141.525 536.169 131.573 551.84 124.982 568.629C118.618 584.847 117.046 598.741 120.317 609.933C122.655 617.926 127.524 624.604 132.239 631.065C134.95 634.778 137.751 638.62 140.092 642.716C145.623 652.378 148.704 664.015 149.014 676.362C149.321 688.698 146.844 701.088 141.85 712.205L141.342 712.008C146.283 700.997 148.737 688.724 148.429 676.5C148.129 664.234 145.069 652.681 139.584 643.081C137.254 639.004 134.461 635.174 131.757 631.457C127.034 624.979 122.154 618.278 119.806 610.229C116.512 598.942 118.089 584.938 124.498 568.607C131.11 551.764 141.073 536.068 150.709 520.887C158.639 508.397 166.84 495.483 173.215 481.927C179.465 468.645 180.232 454.473 175.435 440.953C171.351 429.445 163.422 418.969 153.112 411.453C150.104 409.259 146.867 407.252 143.735 405.303C136.443 400.781 128.907 396.104 124.112 388.894C122.028 385.769 120.545 382.163 119.642 378.254C119.768 377.971 119.884 377.681 120.006 377.392C120.891 381.467 122.412 385.229 124.574 388.471ZM119.777 376.252C119.657 376.558 119.537 376.868 119.412 377.172C119.345 376.846 119.278 376.514 119.218 376.178C119.346 375.858 119.479 375.539 119.601 375.218C119.654 375.564 119.712 375.91 119.777 376.252ZM120.222 375.114C120.164 374.741 120.108 374.358 120.056 373.976C121.787 369.223 123.081 364.293 123.905 359.268C123.792 360.6 123.736 361.917 123.729 363.227C122.856 367.281 121.688 371.259 120.222 375.114ZM124.355 363.315C124.558 362.378 124.746 361.439 124.913 360.495C124.726 363.793 124.885 367.012 125.386 370.086C125.261 370.417 125.132 370.747 125.002 371.077C124.555 368.582 124.348 365.98 124.355 363.315ZM124.677 374.91L124.163 374.717C124.383 374.225 124.595 373.726 124.806 373.226C124.874 373.526 124.947 373.823 125.021 374.119C124.904 374.382 124.793 374.647 124.677 374.91ZM130.395 383.288C135.226 390.478 142.81 395.128 150.159 399.63C153.314 401.567 156.574 403.568 159.615 405.758C170.033 413.269 178.052 423.768 182.196 435.32C187.086 448.96 186.315 463.29 179.966 476.77C173.54 490.422 165.28 503.419 157.28 515.996C147.61 531.208 137.608 546.944 130.992 563.781C124.602 580.047 123.039 593.974 126.344 605.183C128.702 613.181 133.614 619.857 138.361 626.319C141.092 630.035 143.92 633.878 146.283 637.972C151.855 647.643 154.97 659.292 155.297 671.664C155.619 684.029 153.136 696.45 148.118 707.605L147.605 707.407C152.57 696.358 155.023 684.059 154.705 671.806C154.389 659.516 151.295 647.945 145.763 638.341C143.413 634.26 140.599 630.431 137.873 626.715C133.113 620.235 128.196 613.536 125.823 605.478C122.494 594.179 124.067 580.142 130.502 563.763C137.135 546.865 147.152 531.111 156.838 515.865C164.81 503.325 173.048 490.36 179.446 476.767C185.722 463.437 186.479 449.237 181.63 435.706C177.511 424.191 169.518 413.718 159.135 406.22C156.099 404.03 152.84 402.03 149.689 400.093C142.353 395.583 134.76 390.921 129.928 383.715C128.023 380.886 126.619 377.657 125.691 374.168C125.81 373.889 125.939 373.617 126.053 373.337C126.977 376.98 128.423 380.349 130.395 383.288ZM125.799 372.272C125.681 372.567 125.559 372.861 125.437 373.15C125.366 372.844 125.295 372.532 125.23 372.222C125.355 371.912 125.477 371.597 125.603 371.287C125.664 371.618 125.731 371.945 125.799 372.272ZM126.225 371.205C126.161 370.857 126.098 370.51 126.035 370.163C127.615 365.975 128.848 361.643 129.72 357.228C129.694 358.126 129.697 359.013 129.729 359.891C128.831 363.748 127.659 367.534 126.225 371.205ZM130.358 359.985C130.529 359.264 130.684 358.541 130.829 357.816C130.81 360.808 131.077 363.724 131.633 366.496C131.511 366.812 131.38 367.12 131.254 367.435C130.739 365.043 130.441 362.545 130.358 359.985ZM131.1 369.454C131.176 369.735 131.252 370.021 131.334 370.303C131.286 370.41 131.242 370.524 131.194 370.631L130.67 370.436C130.82 370.11 130.955 369.781 131.1 369.454ZM136.439 378.35C141.313 385.534 148.953 390.173 156.346 394.663C159.525 396.589 162.812 398.584 165.88 400.775C176.38 408.27 184.464 418.767 188.648 430.332C193.589 443.982 192.826 458.351 186.451 471.879C179.988 485.587 171.686 498.634 163.649 511.262C153.925 526.533 143.875 542.322 137.237 559.218C130.825 575.539 129.261 589.498 132.601 600.719C134.983 608.732 139.931 615.41 144.721 621.87C147.479 625.586 150.327 629.433 152.709 633.537C158.334 643.207 161.483 654.879 161.824 667.28C162.162 679.67 159.678 692.128 154.636 703.32L154.112 703.125C159.1 692.039 161.556 679.703 161.222 667.42C160.89 655.105 157.762 643.518 152.184 633.904C149.814 629.819 146.979 625.986 144.231 622.276C139.43 615.793 134.47 609.091 132.073 601.022C128.711 589.701 130.28 575.632 136.741 559.199C143.401 542.249 153.463 526.43 163.204 511.125C171.211 498.539 179.492 485.519 185.921 471.874C192.223 458.496 192.969 444.267 188.076 430.722C183.911 419.193 175.859 408.724 165.394 401.241C162.341 399.058 159.059 397.064 155.882 395.127C148.484 390.632 140.841 385.981 135.965 378.782C134.256 376.252 132.938 373.412 132.006 370.342C132.129 370.069 132.254 369.791 132.367 369.516C133.302 372.731 134.655 375.715 136.439 378.35ZM132.1 368.544C131.98 368.823 131.856 369.101 131.736 369.38C131.655 369.093 131.581 368.802 131.507 368.505C131.631 368.206 131.749 367.906 131.873 367.606C131.943 367.918 132.018 368.236 132.1 368.544ZM132.504 367.531C132.43 367.208 132.357 366.885 132.289 366.558C133.796 362.663 135.004 358.64 135.897 354.543C135.912 355.263 135.939 355.98 135.987 356.696C135.073 360.391 133.913 364.015 132.504 367.531ZM136.621 356.764C136.768 356.162 136.91 355.558 137.047 354.953C137.145 357.783 137.505 360.526 138.136 363.138C138.016 363.443 137.892 363.748 137.767 364.052C137.17 361.723 136.793 359.279 136.621 356.764ZM137.649 365.946C137.722 366.189 137.802 366.428 137.882 366.667L137.412 366.493C137.491 366.313 137.565 366.126 137.649 365.946ZM142.697 373.668C147.613 380.855 155.308 385.484 162.757 389.958C165.959 391.878 169.268 393.868 172.368 396.059C182.946 403.538 191.103 414.039 195.332 425.618C200.322 439.289 199.573 453.692 193.162 467.272C186.673 481.027 178.323 494.129 170.25 506.803C160.476 522.138 150.37 537.996 143.699 554.949C137.259 571.328 135.703 585.331 139.076 596.569C141.482 604.592 146.478 611.274 151.304 617.741C154.083 621.457 156.957 625.303 159.365 629.412C165.041 639.098 168.223 650.787 168.578 663.223C168.937 675.644 166.444 688.142 161.378 699.378L160.854 699.183C165.862 688.052 168.319 675.679 167.971 663.367C167.623 651.023 164.464 639.408 158.833 629.789C156.439 625.694 153.577 621.86 150.804 618.146C145.965 611.66 140.965 604.951 138.538 596.871C135.142 585.532 136.709 571.425 143.191 554.938C149.885 537.925 160.001 522.043 169.785 506.683C177.837 494.037 186.164 480.968 192.625 467.271C198.958 453.845 199.696 439.578 194.749 426.012C190.544 414.469 182.419 403.996 171.875 396.529C168.796 394.347 165.486 392.357 162.281 390.426C154.829 385.941 147.129 381.305 142.211 374.103C140.7 371.888 139.492 369.427 138.586 366.786C138.704 366.513 138.823 366.239 138.941 365.965C139.866 368.753 141.111 371.344 142.697 373.668ZM138.652 365.047C138.532 365.326 138.408 365.604 138.289 365.877C138.201 365.6 138.12 365.318 138.038 365.036C138.158 364.752 138.284 364.469 138.406 364.18C138.48 364.471 138.566 364.759 138.652 365.047ZM119.255 40.9794C124.165 48.1647 131.866 52.7899 139.315 57.2692C142.521 59.1953 145.836 61.1857 148.926 63.3702C159.509 70.8501 167.661 81.3496 171.89 92.9292C176.875 106.599 176.131 121.003 169.72 134.583C163.232 148.333 154.881 161.44 146.802 174.118C137.028 189.453 126.922 205.311 120.257 222.26C113.812 238.637 112.262 252.636 115.635 263.875C118.04 271.903 123.036 278.585 127.871 285.059C130.65 288.775 133.519 292.62 135.923 296.723C141.593 306.408 144.781 318.098 145.137 330.529C145.465 342.014 143.36 353.554 139.041 364.11C138.959 363.802 138.876 363.498 138.801 363.186C142.867 352.94 144.847 341.784 144.529 330.678C144.507 329.776 144.458 328.879 144.403 327.987L144.528 327.757L144.386 327.723C143.649 316.48 140.565 305.947 135.392 297.095C132.997 293.005 130.131 289.165 127.361 285.457C122.523 278.971 117.523 272.262 115.096 264.181C111.7 252.843 113.267 238.736 119.749 222.249C126.438 205.235 136.559 189.354 146.343 173.994C154.395 161.348 162.722 148.279 169.183 134.582C175.516 121.156 176.249 106.888 171.307 93.3225C167.103 81.7746 158.976 71.3067 148.433 63.8401C145.339 61.6495 142.035 59.6611 138.839 57.737C131.392 53.2527 123.687 48.6162 118.77 41.4084C110.812 29.7527 111.232 11.284 119.8 -4.61052L120.143 -4.52067C111.729 11.1869 111.361 29.4268 119.255 40.9794Z" fill="white"/>
</g>
</g>
</g>
</svg>
