<svg xmlns="http://www.w3.org/2000/svg" xmlns:xlink="http://www.w3.org/1999/xlink" width="1400" zoomAndPan="magnify" viewBox="0 0 1050 1049.999947" height="1400" preserveAspectRatio="xMidYMid meet" version="1.0"><defs><clipPath id="3d9c080854"><path d="M 129 151.71875 L 936 151.71875 L 936 897.96875 L 129 897.96875 Z M 129 151.71875 " clip-rule="nonzero"/></clipPath></defs><path fill="#326b9f" d="M 979.34375 633.707031 C 957.488281 633.707031 940.386719 606.855469 940.386719 572.5625 L 940.386719 485.898438 C 940.386719 451.605469 957.488281 424.742188 979.34375 424.742188 C 1001.195312 424.742188 1018.300781 451.605469 1018.300781 485.898438 L 1018.300781 572.5625 C 1018.300781 606.855469 1001.195312 633.707031 979.34375 633.707031 " fill-opacity="1" fill-rule="nonzero"/><path fill="#12120f" d="M 979.34375 420.96875 C 955.375 420.96875 936.597656 449.496094 936.597656 485.898438 L 936.597656 572.5625 C 936.597656 608.96875 955.375 637.480469 979.34375 637.480469 C 1003.308594 637.480469 1022.074219 608.96875 1022.074219 572.5625 L 1022.074219 485.898438 C 1022.074219 449.496094 1003.308594 420.96875 979.34375 420.96875 Z M 979.34375 428.515625 C 998.777344 428.515625 1014.542969 454.214844 1014.542969 485.898438 L 1014.542969 572.5625 C 1014.542969 604.25 998.777344 629.933594 979.34375 629.933594 C 959.90625 629.933594 944.144531 604.25 944.144531 572.5625 L 944.144531 485.898438 C 944.144531 454.214844 959.90625 428.515625 979.34375 428.515625 " fill-opacity="1" fill-rule="nonzero"/><path fill="#193b4f" d="M 1014.542969 572.5625 L 1014.542969 552.34375 C 988.15625 557.3125 957.300781 549.066406 957.300781 549.066406 L 946.460938 592.871094 C 951.488281 614.519531 964.292969 629.933594 979.34375 629.933594 C 998.777344 629.933594 1014.542969 604.25 1014.542969 572.5625 " fill-opacity="1" fill-rule="nonzero"/><path fill="#326b9f" d="M 881.671875 702.277344 C 866.097656 702.277344 854.980469 698.53125 847.695312 690.8125 C 835.515625 677.890625 836.738281 656.941406 838.152344 632.6875 C 838.648438 624.019531 839.171875 615.042969 839.171875 605.691406 L 839.171875 471.085938 C 839.171875 461.746094 838.648438 452.773438 838.152344 444.089844 C 836.738281 419.835938 835.515625 398.886719 847.695312 385.964844 C 854.980469 378.257812 866.097656 374.5 881.671875 374.5 C 934.9375 374.5 978.265625 417.824219 978.265625 471.085938 L 978.265625 605.691406 C 978.265625 658.953125 934.9375 702.277344 881.671875 702.277344 " fill-opacity="1" fill-rule="nonzero"/><path fill="#12120f" d="M 881.671875 367.027344 C 863.925781 367.027344 851.03125 371.542969 842.261719 380.835938 C 827.867188 396.101562 829.164062 418.539062 830.691406 444.527344 C 831.1875 453.09375 831.699219 461.949219 831.699219 471.085938 L 831.699219 605.691406 C 831.699219 614.824219 831.1875 623.683594 830.691406 632.25 C 829.164062 658.238281 827.867188 680.6875 842.261719 695.941406 C 851.03125 705.234375 863.925781 709.765625 881.671875 709.765625 C 939.058594 709.765625 985.753906 663.074219 985.753906 605.691406 L 985.753906 471.085938 C 985.753906 413.703125 939.058594 367.027344 881.671875 367.027344 Z M 881.671875 381.972656 C 930.886719 381.972656 970.789062 421.875 970.789062 471.085938 L 970.789062 605.691406 C 970.789062 654.902344 930.886719 694.804688 881.671875 694.804688 C 832.457031 694.804688 846.660156 654.902344 846.660156 605.691406 L 846.660156 471.085938 C 846.660156 421.875 832.457031 381.972656 881.671875 381.972656 " fill-opacity="1" fill-rule="nonzero"/><path fill="#193b4f" d="M 874.125 585.691406 L 845.015625 644.792969 C 843.734375 674.378906 846.5 694.804688 881.671875 694.804688 C 930.886719 694.804688 970.789062 654.902344 970.789062 605.691406 L 970.789062 584.175781 C 932.691406 598.960938 874.125 585.691406 874.125 585.691406 " fill-opacity="1" fill-rule="nonzero"/><path fill="#ffffff" d="M 527.609375 888.613281 C 416.957031 888.613281 321.773438 859.261719 252.367188 803.726562 C 178.019531 744.234375 138.710938 658.035156 138.710938 554.414062 C 138.710938 337.320312 315.351562 160.714844 532.460938 160.714844 C 749.585938 160.714844 926.207031 337.320312 926.207031 554.414062 C 926.207031 657.613281 885.195312 743.855469 807.585938 803.828125 C 736.824219 858.503906 637.386719 888.613281 527.609375 888.613281 " fill-opacity="1" fill-rule="nonzero"/><g clip-path="url(#3d9c080854)"><path fill="#12120f" d="M 532.460938 151.550781 C 424.839844 151.550781 323.667969 193.449219 247.574219 269.550781 C 171.480469 345.640625 129.5625 446.800781 129.5625 554.414062 C 129.5625 660.902344 170.050781 749.59375 246.65625 810.878906 C 317.710938 867.726562 414.859375 897.765625 527.609375 897.765625 C 639.414062 897.765625 740.828125 866.980469 813.179688 811.070312 C 893.121094 749.300781 935.371094 660.554688 935.371094 554.414062 C 935.371094 446.800781 893.457031 345.640625 817.363281 269.550781 C 741.265625 193.449219 640.082031 151.550781 532.460938 151.550781 M 532.460938 169.863281 C 744.878906 169.863281 917.058594 342.027344 917.058594 554.414062 C 917.058594 766.796875 740.015625 879.453125 527.609375 879.453125 C 315.21875 879.453125 147.875 766.796875 147.875 554.414062 C 147.875 342.027344 320.070312 169.863281 532.460938 169.863281 " fill-opacity="1" fill-rule="nonzero"/></g><path fill="#c2d2d3" d="M 527.609375 879.453125 C 315.21875 879.453125 147.875 766.796875 147.875 554.414062 C 147.875 554.324219 147.875 554.222656 147.875 554.136719 C 147.875 554.105469 147.875 554.09375 147.875 554.078125 C 147.875 553.988281 147.875 553.902344 147.875 553.816406 C 147.875 553.785156 147.875 553.773438 147.875 553.757812 C 147.875 553.667969 147.875 553.582031 147.875 553.480469 C 147.875 553.480469 147.875 553.464844 147.875 553.464844 C 147.875 553.378906 147.875 553.289062 147.875 553.203125 C 147.875 553.175781 147.875 553.160156 147.875 553.144531 C 147.875 553.058594 147.875 552.984375 147.875 552.898438 C 147.875 552.867188 147.875 552.839844 147.875 552.824219 C 147.875 552.738281 147.875 552.648438 147.875 552.5625 C 147.875 552.546875 147.875 552.519531 147.875 552.519531 C 147.875 552.445312 147.875 552.34375 147.875 552.269531 C 147.875 552.257812 147.875 552.226562 147.875 552.210938 C 147.875 552.125 147.875 552.050781 147.890625 551.964844 C 147.890625 551.9375 147.890625 551.921875 147.890625 551.890625 C 147.890625 551.820312 147.890625 551.71875 147.890625 551.628906 C 147.890625 551.617188 147.890625 551.585938 147.890625 551.570312 C 147.890625 551.5 147.890625 551.425781 147.890625 551.351562 C 147.890625 551.324219 147.890625 551.308594 147.890625 551.296875 C 147.890625 551.191406 147.890625 551.121094 147.890625 551.03125 C 147.890625 551.003906 147.890625 550.988281 147.890625 550.960938 C 147.890625 550.886719 147.890625 550.785156 147.890625 550.710938 C 147.890625 550.683594 147.890625 550.667969 147.890625 550.640625 C 147.890625 550.566406 147.890625 550.492188 147.890625 550.421875 C 147.890625 550.390625 147.890625 550.363281 147.890625 550.347656 C 147.890625 550.261719 147.90625 550.1875 147.90625 550.113281 C 147.90625 550.085938 147.90625 550.058594 147.90625 550.027344 C 147.90625 549.953125 147.90625 549.867188 147.90625 549.792969 C 147.90625 549.75 147.90625 549.722656 147.90625 549.691406 C 147.90625 549.621094 147.90625 549.5625 147.90625 549.488281 C 147.90625 549.460938 147.90625 549.414062 147.90625 549.386719 C 147.90625 549.328125 147.90625 549.253906 147.90625 549.199219 C 147.90625 549.167969 147.90625 549.125 147.90625 549.09375 C 147.90625 549.023438 147.921875 548.949219 147.921875 548.875 C 147.921875 548.832031 147.921875 548.789062 147.921875 548.761719 C 147.921875 548.703125 147.921875 548.644531 147.921875 548.601562 C 147.921875 548.527344 147.921875 548.484375 147.921875 548.425781 C 147.921875 548.367188 147.921875 548.335938 147.921875 548.28125 C 147.921875 548.234375 147.921875 548.191406 147.921875 548.148438 C 147.921875 548.089844 147.933594 548.003906 147.933594 547.960938 C 147.933594 547.914062 147.933594 547.855469 147.933594 547.8125 C 147.933594 547.785156 147.933594 547.726562 147.933594 547.683594 C 147.933594 547.625 147.933594 547.550781 147.933594 547.476562 C 147.933594 547.464844 147.933594 547.40625 147.933594 547.375 C 147.933594 547.304688 147.933594 547.230469 147.949219 547.15625 C 147.949219 547.113281 147.949219 547.085938 147.949219 547.042969 C 147.949219 546.996094 147.949219 546.9375 147.949219 546.894531 C 147.949219 546.851562 147.949219 546.824219 147.949219 546.777344 C 147.949219 546.707031 147.949219 546.617188 147.964844 546.546875 C 147.964844 546.515625 147.964844 546.488281 147.964844 546.457031 C 147.964844 546.371094 147.964844 546.285156 147.964844 546.195312 C 147.964844 546.167969 147.964844 546.152344 147.964844 546.125 C 147.964844 545.964844 147.980469 545.773438 147.980469 545.613281 C 147.980469 545.597656 147.980469 545.585938 147.980469 545.585938 C 147.980469 545.46875 147.980469 545.351562 147.980469 545.234375 L 147.980469 545.21875 C 150.847656 423.242188 210.523438 315.324219 301.566406 246.871094 C 268.832031 362.292969 216.105469 615.816406 379.644531 629.933594 C 556.5 645.214844 766.121094 672.207031 837.191406 764.757812 C 766.269531 839.578125 654.960938 878.679688 531.28125 879.4375 L 531.25 879.4375 C 531.148438 879.453125 531.046875 879.453125 530.945312 879.453125 C 530.917969 879.453125 530.886719 879.453125 530.859375 879.453125 C 530.769531 879.453125 530.683594 879.453125 530.609375 879.453125 C 530.566406 879.453125 530.539062 879.453125 530.492188 879.453125 C 530.40625 879.453125 530.320312 879.453125 530.230469 879.453125 C 530.203125 879.453125 530.1875 879.453125 530.160156 879.453125 C 530.042969 879.453125 529.941406 879.453125 529.839844 879.453125 C 529.824219 879.453125 529.824219 879.453125 529.808594 879.453125 C 529.691406 879.453125 529.578125 879.453125 529.460938 879.453125 C 529.445312 879.453125 529.402344 879.453125 529.402344 879.453125 C 529.300781 879.453125 529.210938 879.453125 529.109375 879.453125 C 529.082031 879.453125 529.039062 879.453125 528.992188 879.453125 C 528.921875 879.453125 528.847656 879.453125 528.773438 879.453125 C 528.730469 879.453125 528.6875 879.453125 528.644531 879.453125 C 528.585938 879.453125 528.5 879.453125 528.425781 879.453125 C 528.394531 879.453125 528.335938 879.453125 528.292969 879.453125 C 528.222656 879.453125 528.148438 879.453125 528.0625 879.453125 C 528.03125 879.453125 527.988281 879.453125 527.960938 879.453125 C 527.84375 879.453125 527.726562 879.453125 527.609375 879.453125 " fill-opacity="1" fill-rule="nonzero"/><path fill="#34403e" d="M 527.609375 879.453125 C 315.21875 879.453125 147.875 766.796875 147.875 554.414062 C 147.875 766.796875 315.21875 879.453125 527.609375 879.453125 M 527.960938 879.453125 C 527.988281 879.453125 528.03125 879.453125 528.0625 879.453125 C 528.03125 879.453125 527.988281 879.453125 527.960938 879.453125 M 528.292969 879.453125 C 528.335938 879.453125 528.394531 879.453125 528.425781 879.453125 C 528.382812 879.453125 528.335938 879.453125 528.292969 879.453125 M 528.644531 879.453125 C 528.6875 879.453125 528.730469 879.453125 528.773438 879.453125 C 528.730469 879.453125 528.6875 879.453125 528.644531 879.453125 M 528.992188 879.453125 C 529.039062 879.453125 529.082031 879.453125 529.109375 879.453125 C 529.082031 879.453125 529.039062 879.453125 528.992188 879.453125 M 529.402344 879.453125 C 529.402344 879.453125 529.445312 879.453125 529.460938 879.453125 C 529.445312 879.453125 529.414062 879.453125 529.402344 879.453125 M 529.808594 879.453125 C 529.824219 879.453125 529.824219 879.453125 529.839844 879.453125 C 529.824219 879.453125 529.808594 879.453125 529.808594 879.453125 M 530.160156 879.453125 C 530.1875 879.453125 530.203125 879.453125 530.230469 879.453125 C 530.203125 879.453125 530.1875 879.453125 530.160156 879.453125 M 530.492188 879.453125 C 530.539062 879.453125 530.566406 879.453125 530.609375 879.453125 C 530.566406 879.453125 530.539062 879.453125 530.492188 879.453125 M 530.859375 879.453125 C 530.886719 879.453125 530.917969 879.453125 530.945312 879.453125 C 530.917969 879.453125 530.886719 879.453125 530.859375 879.453125 M 531.25 879.4375 L 531.28125 879.4375 C 531.28125 879.4375 531.265625 879.4375 531.25 879.4375 M 147.875 554.414062 C 147.875 554.324219 147.875 554.222656 147.875 554.136719 C 147.875 554.222656 147.875 554.324219 147.875 554.414062 M 147.875 554.078125 C 147.875 553.988281 147.875 553.902344 147.875 553.816406 C 147.875 553.902344 147.875 553.988281 147.875 554.078125 M 147.875 553.757812 C 147.875 553.667969 147.875 553.582031 147.875 553.480469 C 147.875 553.582031 147.875 553.667969 147.875 553.757812 M 147.875 553.464844 C 147.875 553.378906 147.875 553.289062 147.875 553.203125 C 147.875 553.289062 147.875 553.378906 147.875 553.464844 M 147.875 553.144531 C 147.875 553.074219 147.875 552.96875 147.875 552.898438 C 147.875 552.984375 147.875 553.058594 147.875 553.144531 M 147.875 552.824219 C 147.875 552.738281 147.875 552.648438 147.875 552.5625 C 147.875 552.648438 147.875 552.738281 147.875 552.824219 M 147.875 552.519531 C 147.875 552.429688 147.875 552.359375 147.875 552.269531 C 147.875 552.34375 147.875 552.445312 147.875 552.519531 M 147.875 552.210938 C 147.875 552.125 147.875 552.050781 147.890625 551.964844 C 147.875 552.050781 147.875 552.125 147.875 552.210938 M 147.890625 551.890625 C 147.890625 551.804688 147.890625 551.71875 147.890625 551.628906 C 147.890625 551.71875 147.890625 551.820312 147.890625 551.890625 M 147.890625 551.570312 C 147.890625 551.5 147.890625 551.410156 147.890625 551.351562 C 147.890625 551.425781 147.890625 551.5 147.890625 551.570312 M 147.890625 551.296875 C 147.890625 551.207031 147.890625 551.121094 147.890625 551.03125 C 147.890625 551.121094 147.890625 551.191406 147.890625 551.296875 M 147.890625 550.960938 C 147.890625 550.871094 147.890625 550.785156 147.890625 550.710938 C 147.890625 550.785156 147.890625 550.886719 147.890625 550.960938 M 147.890625 550.640625 C 147.890625 550.566406 147.890625 550.492188 147.890625 550.421875 C 147.890625 550.492188 147.890625 550.566406 147.890625 550.640625 M 147.890625 550.347656 C 147.890625 550.273438 147.90625 550.1875 147.90625 550.113281 C 147.90625 550.1875 147.890625 550.261719 147.890625 550.347656 M 147.90625 550.027344 C 147.90625 549.953125 147.90625 549.867188 147.90625 549.792969 C 147.90625 549.867188 147.90625 549.953125 147.90625 550.027344 M 147.90625 549.691406 C 147.90625 549.621094 147.90625 549.5625 147.90625 549.488281 C 147.90625 549.5625 147.90625 549.621094 147.90625 549.691406 M 147.90625 549.386719 C 147.90625 549.328125 147.90625 549.253906 147.90625 549.199219 C 147.90625 549.253906 147.90625 549.328125 147.90625 549.386719 M 147.90625 549.09375 C 147.90625 549.023438 147.921875 548.949219 147.921875 548.875 C 147.921875 548.949219 147.90625 549.023438 147.90625 549.09375 M 147.921875 548.761719 C 147.921875 548.703125 147.921875 548.644531 147.921875 548.601562 C 147.921875 548.644531 147.921875 548.703125 147.921875 548.761719 M 147.921875 548.425781 C 147.921875 548.382812 147.921875 548.324219 147.921875 548.28125 C 147.921875 548.335938 147.921875 548.367188 147.921875 548.425781 M 147.921875 548.148438 C 147.921875 548.074219 147.921875 548.015625 147.933594 547.960938 C 147.933594 548.003906 147.921875 548.089844 147.921875 548.148438 M 147.933594 547.8125 C 147.933594 547.769531 147.933594 547.726562 147.933594 547.683594 C 147.933594 547.726562 147.933594 547.785156 147.933594 547.8125 M 147.933594 547.476562 C 147.933594 547.449219 147.933594 547.40625 147.933594 547.375 C 147.933594 547.40625 147.933594 547.464844 147.933594 547.476562 M 147.949219 547.15625 C 147.949219 547.113281 147.949219 547.070312 147.949219 547.042969 C 147.949219 547.085938 147.949219 547.113281 147.949219 547.15625 M 147.949219 546.894531 C 147.949219 546.851562 147.949219 546.824219 147.949219 546.777344 C 147.949219 546.824219 147.949219 546.851562 147.949219 546.894531 M 147.964844 546.546875 C 147.964844 546.515625 147.964844 546.488281 147.964844 546.457031 C 147.964844 546.488281 147.964844 546.515625 147.964844 546.546875 M 147.964844 546.195312 C 147.964844 546.167969 147.964844 546.152344 147.964844 546.125 C 147.964844 546.152344 147.964844 546.167969 147.964844 546.195312 M 147.980469 545.613281 C 147.980469 545.597656 147.980469 545.597656 147.980469 545.585938 C 147.980469 545.585938 147.980469 545.597656 147.980469 545.613281 M 147.980469 545.234375 L 147.980469 545.21875 L 147.980469 545.234375 " fill-opacity="1" fill-rule="nonzero"/><path fill="#12120f" d="M 457.210938 882.101562 C 457.398438 881.914062 472.710938 866.269531 488.011719 837.117188 C 503.308594 807.980469 518.589844 765.28125 518.589844 711.148438 C 518.589844 675.179688 511.832031 634.199219 493.941406 588.878906 C 464.074219 513.199219 440.019531 438.421875 423.4375 374.179688 C 406.84375 309.964844 397.78125 256.191406 397.796875 223.050781 C 397.78125 210.652344 399.109375 201.15625 401.453125 195.488281 L 394.433594 192.617188 C 391.460938 199.945312 390.234375 210.128906 390.207031 223.050781 C 390.234375 257.460938 399.429688 311.476562 416.097656 376.074219 C 432.75 440.652344 456.90625 515.691406 486.886719 591.664062 C 504.445312 636.136719 511 676.140625 511 711.148438 C 511 763.839844 496.140625 805.300781 481.292969 833.59375 C 473.863281 847.753906 466.449219 858.589844 460.910156 865.890625 C 458.128906 869.53125 455.839844 872.285156 454.238281 874.121094 C 453.4375 875.023438 452.8125 875.707031 452.402344 876.160156 L 451.9375 876.65625 L 451.792969 876.800781 L 457.210938 882.101562 " fill-opacity="1" fill-rule="nonzero"/><path fill="#12120f" d="M 746.542969 847.242188 C 746.730469 847.039062 762.042969 831.390625 777.339844 802.242188 C 792.636719 773.105469 807.9375 730.40625 807.9375 676.257812 C 807.9375 640.304688 801.175781 599.324219 783.285156 554.003906 C 753.710938 479.082031 730.414062 412.785156 714.53125 358.050781 C 698.652344 303.347656 690.214844 260.082031 690.246094 231.691406 C 690.230469 220.328125 691.601562 211.398438 694.136719 205.234375 L 687.113281 202.378906 C 684.023438 209.96875 682.667969 219.742188 682.65625 231.691406 C 682.667969 261.496094 691.292969 305.082031 707.246094 360.164062 C 723.230469 415.230469 746.585938 481.703125 776.234375 556.789062 C 793.789062 601.261719 800.34375 641.25 800.34375 676.257812 C 800.34375 728.949219 785.484375 770.410156 770.625 798.714844 C 763.207031 812.875 755.777344 823.714844 750.242188 831.011719 C 747.460938 834.65625 745.15625 837.410156 743.570312 839.230469 C 742.769531 840.148438 742.140625 840.832031 741.734375 841.285156 L 741.265625 841.777344 L 741.121094 841.925781 L 746.542969 847.242188 " fill-opacity="1" fill-rule="nonzero"/><path fill="#326b9f" d="M 168.375 725.175781 C 115.109375 725.175781 71.78125 681.839844 71.78125 628.59375 L 71.78125 493.984375 C 71.78125 440.726562 115.109375 397.386719 168.375 397.386719 C 183.949219 397.386719 195.066406 401.144531 202.351562 408.851562 C 214.53125 421.773438 213.308594 442.71875 211.894531 466.992188 C 211.398438 475.660156 210.875 484.632812 210.875 493.984375 L 210.875 628.59375 C 210.875 637.929688 211.398438 646.90625 211.894531 655.570312 C 213.308594 679.84375 214.53125 700.789062 202.351562 713.699219 C 195.066406 721.417969 183.949219 725.175781 168.375 725.175781 " fill-opacity="1" fill-rule="nonzero"/><path fill="#12120f" d="M 168.375 389.910156 C 110.988281 389.910156 64.292969 436.585938 64.292969 493.984375 L 64.292969 628.59375 C 64.292969 685.976562 110.988281 732.652344 168.375 732.652344 C 186.121094 732.652344 199.015625 728.136719 207.785156 718.839844 C 222.179688 703.574219 220.882812 681.125 219.367188 655.136719 C 218.871094 646.570312 218.347656 637.710938 218.347656 628.59375 L 218.347656 493.984375 C 218.347656 484.851562 218.871094 475.992188 219.367188 467.425781 C 220.882812 441.425781 222.179688 418.988281 207.785156 403.722656 C 199.015625 394.429688 186.121094 389.910156 168.375 389.910156 Z M 168.375 404.859375 C 217.589844 404.859375 203.386719 444.761719 203.386719 493.984375 L 203.386719 628.59375 C 203.386719 677.804688 217.589844 717.691406 168.375 717.691406 C 119.144531 717.691406 79.253906 677.804688 79.253906 628.59375 L 79.253906 493.984375 C 79.253906 444.761719 119.144531 404.859375 168.375 404.859375 " fill-opacity="1" fill-rule="nonzero"/><path fill="#193b4f" d="M 127.84375 581.117188 C 124.320312 493.488281 113.332031 452.625 102.699219 433.90625 C 88.1875 449.757812 79.253906 470.792969 79.253906 493.984375 L 79.253906 628.59375 C 79.253906 677.804688 119.144531 717.691406 168.375 717.691406 C 209.199219 717.691406 206.386719 690.214844 204.246094 652.773438 C 170.925781 656.578125 130.511719 647.3125 127.84375 581.117188 " fill-opacity="1" fill-rule="nonzero"/><path fill="#326b9f" d="M 70.703125 656.59375 C 48.851562 656.59375 31.746094 629.742188 31.746094 595.464844 L 31.746094 508.785156 C 31.746094 474.492188 48.851562 447.628906 70.703125 447.628906 C 92.558594 447.628906 109.675781 474.492188 109.675781 508.785156 L 109.675781 595.464844 C 109.675781 629.742188 92.558594 656.59375 70.703125 656.59375 " fill-opacity="1" fill-rule="nonzero"/><path fill="#12120f" d="M 70.703125 443.871094 C 46.738281 443.871094 27.972656 472.378906 27.972656 508.785156 L 27.972656 595.464844 C 27.972656 631.855469 46.738281 660.363281 70.703125 660.363281 C 94.671875 660.363281 113.449219 631.855469 113.449219 595.464844 L 113.449219 508.785156 C 113.449219 472.378906 94.671875 443.871094 70.703125 443.871094 Z M 70.703125 451.402344 C 90.152344 451.402344 105.902344 477.101562 105.902344 508.785156 L 105.902344 595.464844 C 105.902344 627.136719 90.152344 652.832031 70.703125 652.832031 C 51.269531 652.832031 35.519531 627.136719 35.519531 595.464844 L 35.519531 508.785156 C 35.519531 477.101562 51.269531 451.402344 70.703125 451.402344 " fill-opacity="1" fill-rule="nonzero"/><path fill="#193b4f" d="M 70.703125 652.832031 C 90.152344 652.832031 105.902344 627.136719 105.902344 595.464844 L 105.902344 582.046875 C 87.167969 579.980469 49.5625 563.808594 45.804688 468.242188 C 39.4375 478.628906 35.519531 492.964844 35.519531 508.785156 L 35.519531 595.464844 C 35.519531 627.136719 51.269531 652.832031 70.703125 652.832031 " fill-opacity="1" fill-rule="nonzero"/><path fill="#0a1920" d="M 58.160156 631.097656 C 42.628906 631.097656 42.191406 561.230469 42.191406 553.261719 C 42.191406 545.308594 42.628906 475.441406 58.160156 475.441406 C 73.691406 475.441406 74.140625 545.308594 74.140625 553.261719 C 74.140625 561.230469 73.691406 631.097656 58.160156 631.097656 " fill-opacity="1" fill-rule="nonzero"/><path fill="#12120f" d="M 58.160156 472.015625 C 50.351562 472.015625 45.820312 479.984375 42.511719 499.519531 C 40.09375 513.941406 38.753906 533.027344 38.753906 553.261719 C 38.753906 573.511719 40.09375 592.59375 42.511719 607.015625 C 45.820312 626.566406 50.351562 634.535156 58.160156 634.535156 C 65.984375 634.535156 70.515625 626.566406 73.808594 607.015625 C 76.238281 592.59375 77.582031 573.511719 77.582031 553.261719 C 77.582031 533.027344 76.238281 513.941406 73.808594 499.519531 C 70.515625 479.984375 65.984375 472.015625 58.160156 472.015625 Z M 58.160156 478.878906 C 65.09375 478.878906 70.703125 512.179688 70.703125 553.261719 C 70.703125 594.359375 65.09375 627.660156 58.160156 627.660156 C 51.238281 627.660156 45.617188 594.359375 45.617188 553.261719 C 45.617188 512.179688 51.238281 478.878906 58.160156 478.878906 " fill-opacity="1" fill-rule="nonzero"/><path fill="#326b9f" d="M 811.636719 681.300781 C 763.078125 681.300781 708.253906 647.660156 701.246094 643.234375 C 683.894531 636.621094 660.554688 633.269531 631.851562 633.269531 C 573.195312 633.269531 510.664062 647.429688 502.246094 649.410156 C 476.894531 663.324219 441.226562 671.933594 408.839844 671.933594 C 349.792969 671.933594 309.785156 645.460938 299.03125 599.296875 C 288.703125 554.863281 310.730469 487.007812 352.605469 434.269531 C 386.550781 391.542969 425.625 368 462.644531 368 C 471.691406 368 480.625 369.445312 489.175781 372.285156 C 556.222656 394.484375 634.503906 397.808594 675.195312 397.808594 C 685.890625 397.808594 693.363281 397.558594 696.304688 397.457031 C 703.808594 394.136719 739.226562 379.292969 772.851562 379.292969 C 784.492188 379.292969 794.824219 381.097656 803.566406 384.667969 C 827.5625 394.472656 852.210938 426.796875 869.503906 471.140625 C 888.664062 520.28125 900.597656 590.964844 876.601562 641.980469 C 864.507812 667.707031 842.058594 681.300781 811.652344 681.300781 L 811.636719 681.300781 " fill-opacity="1" fill-rule="nonzero"/><path fill="#12120f" d="M 462.628906 360.527344 C 423.292969 360.527344 382.136719 385.0625 346.777344 429.59375 C 303.5625 484.007812 280.921875 554.484375 291.761719 600.984375 C 303.34375 650.835938 346.019531 679.417969 408.839844 679.417969 C 442.539062 679.417969 478.261719 670.855469 504.925781 656.460938 C 516.144531 653.867188 575.863281 640.757812 631.851562 640.757812 C 659.273438 640.757812 681.476562 643.84375 697.910156 649.964844 C 707.511719 655.949219 762.378906 688.785156 811.636719 688.785156 C 845.160156 688.785156 869.957031 673.695312 883.375 645.171875 C 908.363281 591.996094 896.195312 519.011719 876.46875 468.433594 C 858.183594 421.523438 832.644531 388.46875 806.390625 377.746094 C 796.746094 373.800781 785.46875 371.804688 772.851562 371.804688 C 739.535156 371.804688 704.742188 385.671875 694.632812 390.027344 C 691.121094 390.144531 684.359375 390.335938 675.195312 390.335938 C 634.957031 390.335938 557.578125 387.054688 491.535156 365.191406 C 482.210938 362.101562 472.492188 360.527344 462.644531 360.527344 Z M 462.644531 375.488281 C 470.730469 375.488281 478.832031 376.726562 486.832031 379.378906 C 555.714844 402.207031 636.515625 405.28125 675.195312 405.28125 C 689.53125 405.28125 698.070312 404.859375 698.070312 404.859375 C 698.070312 404.859375 737.027344 386.765625 772.851562 386.765625 C 782.671875 386.765625 792.257812 388.121094 800.738281 391.585938 C 853.917969 413.324219 907.503906 558.695312 869.839844 638.804688 C 857.515625 665.011719 835.589844 673.824219 811.636719 673.824219 C 762.378906 673.824219 704.640625 636.515625 704.640625 636.515625 C 684.285156 628.59375 658.367188 625.796875 631.851562 625.796875 C 567.425781 625.796875 499.519531 642.375 499.519531 642.375 C 476.3125 655.355469 442.175781 664.457031 408.839844 664.457031 C 362.511719 664.457031 317.785156 646.859375 306.316406 597.605469 C 288.296875 520.089844 375.375 375.476562 462.644531 375.488281 " fill-opacity="1" fill-rule="nonzero"/><path fill="#326b9f" d="M 811.636719 681.300781 C 763.078125 681.300781 708.253906 647.660156 701.246094 643.234375 C 683.894531 636.621094 660.554688 633.269531 631.851562 633.269531 C 573.195312 633.269531 510.664062 647.429688 502.246094 649.410156 C 476.894531 663.324219 441.226562 671.933594 408.839844 671.933594 C 349.792969 671.933594 309.785156 645.460938 299.03125 599.296875 C 288.703125 554.863281 310.730469 487.007812 352.605469 434.269531 C 386.550781 391.542969 425.625 368 462.644531 368 C 471.691406 368 480.625 369.445312 489.175781 372.285156 C 556.222656 394.484375 634.503906 397.808594 675.195312 397.808594 C 685.890625 397.808594 693.363281 397.558594 696.304688 397.457031 C 703.808594 394.136719 739.226562 379.292969 772.851562 379.292969 C 784.492188 379.292969 794.824219 381.097656 803.566406 384.667969 C 827.5625 394.472656 852.210938 426.796875 869.503906 471.140625 C 888.664062 520.28125 900.597656 590.964844 876.601562 641.980469 C 864.507812 667.707031 842.058594 681.300781 811.652344 681.300781 L 811.636719 681.300781 " fill-opacity="1" fill-rule="nonzero"/><path fill="#12120f" d="M 462.628906 360.527344 C 423.292969 360.527344 382.136719 385.0625 346.777344 429.59375 C 303.5625 484.007812 280.921875 554.484375 291.761719 600.984375 C 303.34375 650.835938 346.019531 679.417969 408.839844 679.417969 C 442.539062 679.417969 478.261719 670.855469 504.925781 656.460938 C 516.144531 653.867188 575.863281 640.757812 631.851562 640.757812 C 659.273438 640.757812 681.476562 643.84375 697.910156 649.964844 C 707.511719 655.949219 762.378906 688.785156 811.636719 688.785156 C 845.160156 688.785156 869.957031 673.695312 883.375 645.171875 C 908.363281 591.996094 896.195312 519.011719 876.46875 468.433594 C 858.183594 421.523438 832.644531 388.46875 806.390625 377.746094 C 796.746094 373.800781 785.46875 371.804688 772.851562 371.804688 C 739.535156 371.804688 704.742188 385.671875 694.632812 390.027344 C 691.121094 390.144531 684.359375 390.335938 675.195312 390.335938 C 634.957031 390.335938 557.578125 387.054688 491.535156 365.191406 C 482.210938 362.101562 472.492188 360.527344 462.644531 360.527344 Z M 462.644531 375.488281 C 470.730469 375.488281 478.832031 376.726562 486.832031 379.378906 C 555.714844 402.207031 636.515625 405.28125 675.195312 405.28125 C 689.53125 405.28125 698.070312 404.859375 698.070312 404.859375 C 698.070312 404.859375 737.027344 386.765625 772.851562 386.765625 C 782.671875 386.765625 792.257812 388.121094 800.738281 391.585938 C 853.917969 413.324219 907.503906 558.695312 869.839844 638.804688 C 857.515625 665.011719 835.589844 673.824219 811.636719 673.824219 C 762.378906 673.824219 704.640625 636.515625 704.640625 636.515625 C 684.285156 628.59375 658.367188 625.796875 631.851562 625.796875 C 567.425781 625.796875 499.519531 642.375 499.519531 642.375 C 476.3125 655.355469 442.175781 664.457031 408.839844 664.457031 C 362.511719 664.457031 317.785156 646.859375 306.316406 597.605469 C 288.296875 520.089844 375.375 375.476562 462.644531 375.488281 " fill-opacity="1" fill-rule="nonzero"/><path fill="#265578" d="M 494.246094 645.15625 C 388.953125 627.585938 333.199219 595.726562 304.101562 569.855469 C 303.679688 579.71875 304.335938 589.070312 306.316406 597.605469 C 325.417969 679.695312 436.929688 673.855469 494.246094 645.15625 " fill-opacity="1" fill-rule="nonzero"/><path fill="#091115" d="M 784.65625 634.363281 C 744.339844 634.347656 698.535156 610.382812 693.554688 607.703125 C 678.78125 602.921875 658.964844 600.503906 634.621094 600.503906 C 584.664062 600.503906 531.441406 610.820312 525.613281 611.984375 C 504.75 621.714844 475.277344 627.746094 448.484375 627.746094 C 400.15625 627.746094 367.363281 609.363281 358.535156 577.269531 C 351.148438 550.464844 363.007812 512.210938 389.507812 477.421875 C 419.199219 438.4375 458.273438 415.15625 494.011719 415.15625 C 501.078125 415.15625 508.058594 416.074219 514.773438 417.851562 C 573.894531 433.601562 625.398438 436.90625 658.207031 436.90625 C 675.238281 436.90625 686.238281 435.988281 688.804688 435.742188 C 693.582031 433.9375 723.769531 422.90625 752.28125 422.90625 C 761.707031 422.90625 770.027344 424.132812 777.050781 426.566406 C 799.179688 434.199219 822.460938 462.621094 836.359375 498.980469 C 851.964844 539.773438 852.285156 580.269531 837.21875 607.324219 C 827.238281 625.257812 809.554688 634.363281 784.65625 634.363281 " fill-opacity="1" fill-rule="nonzero"/><path fill="#12120f" d="M 494.011719 410.582031 C 456.847656 410.582031 416.417969 434.535156 385.867188 474.652344 C 358.519531 510.546875 346.355469 550.332031 354.117188 578.492188 C 363.546875 612.714844 397.929688 632.335938 448.484375 632.335938 C 476.09375 632.335938 505.347656 626.378906 527.042969 616.371094 C 534.910156 614.824219 586.351562 605.078125 634.621094 605.078125 C 658.265625 605.078125 677.484375 607.394531 691.761719 611.941406 C 698.492188 615.523438 744.136719 638.9375 784.65625 638.9375 C 810.964844 638.9375 830.519531 628.765625 841.226562 609.550781 C 856.933594 581.335938 856.714844 539.394531 840.644531 497.351562 C 826.046875 459.195312 802.253906 430.410156 778.535156 422.238281 C 771.046875 419.644531 762.203125 418.332031 752.28125 418.332031 C 724.015625 418.332031 694.265625 428.824219 687.769531 431.242188 C 684.460938 431.53125 673.957031 432.332031 658.207031 432.332031 C 625.675781 432.332031 574.59375 429.054688 515.9375 413.4375 C 508.859375 411.546875 501.472656 410.582031 494.011719 410.582031 Z M 494.011719 419.746094 C 500.554688 419.746094 507.109375 420.546875 513.59375 422.28125 C 573.996094 438.363281 626.550781 441.480469 658.207031 441.480469 C 678.210938 441.480469 689.867188 440.242188 689.867188 440.242188 C 689.867188 440.242188 722.398438 427.484375 752.28125 427.484375 C 760.484375 427.484375 768.484375 428.445312 775.546875 430.890625 C 819.925781 446.203125 864.652344 548.644531 833.214844 605.09375 C 822.941406 623.566406 804.628906 629.773438 784.65625 629.773438 C 743.554688 629.773438 695.359375 603.476562 695.359375 603.476562 C 678.371094 597.898438 656.738281 595.929688 634.621094 595.929688 C 580.84375 595.929688 524.171875 607.613281 524.171875 607.613281 C 504.808594 616.761719 476.3125 623.171875 448.484375 623.171875 C 409.832031 623.171875 372.503906 610.777344 362.949219 576.058594 C 347.855469 521.269531 420.773438 419.746094 494.011719 419.746094 " fill-opacity="1" fill-rule="nonzero"/><path fill="#65c4c3" d="M 596.171875 518.355469 C 596.171875 539.539062 585.800781 556.699219 572.992188 556.699219 C 560.199219 556.699219 549.828125 539.539062 549.828125 518.355469 C 549.828125 497.191406 560.199219 480.027344 572.992188 480.027344 C 585.800781 480.027344 596.171875 497.191406 596.171875 518.355469 " fill-opacity="1" fill-rule="nonzero"/><path fill="#65c4c3" d="M 720.941406 518.355469 C 720.941406 539.539062 710.570312 556.699219 697.761719 556.699219 C 684.957031 556.699219 674.582031 539.539062 674.582031 518.355469 C 674.582031 497.191406 684.957031 480.027344 697.761719 480.027344 C 710.570312 480.027344 720.941406 497.191406 720.941406 518.355469 " fill-opacity="1" fill-rule="nonzero"/><path fill="#9cdbe8" d="M 116.394531 433.90625 C 116.394531 433.90625 208.734375 366.71875 197.28125 495.660156 C 185.828125 624.601562 184.765625 402.878906 116.394531 433.90625 " fill-opacity="1" fill-rule="nonzero"/><path fill="#9cdbe8" d="M 62.222656 456.707031 C 62.222656 456.707031 101.5625 447.542969 98.835938 513.214844 C 96.667969 566.007812 87.53125 460.273438 62.222656 456.707031 " fill-opacity="1" fill-rule="nonzero"/></svg>